<svg width="250" height="50" viewBox="0 0 250 50" fill="none" xmlns="http://www.w3.org/2000/svg">
<g clip-path="url(#clip0_68_2754)">
<path d="M36.033 49.0854C36.0331 49.1045 36.0263 49.1229 36.0137 49.1373C36.0011 49.1517 35.9837 49.161 35.9647 49.1635H25.7706V46.3523C23.2584 49.1668 19.8425 49.9997 16.2722 49.9997C7.22001 49.9997 0 42.408 0 33.077C0 23.746 7.22001 16.1543 16.2722 16.1543C19.838 16.1543 23.2584 16.9805 25.7728 19.7916V17.0586C25.7728 17.0379 25.7811 17.018 25.7958 17.0033C25.8104 16.9887 25.8304 16.9805 25.8511 16.9805H36.0296L36.033 49.0854ZM25.0614 29.4978C24.6085 28.3481 23.7722 27.3896 22.6935 26.7837C16.5551 23.3697 10.2601 27.1041 10.2601 33.0759C10.246 34.0829 10.4355 35.0824 10.8173 36.0146C11.1992 36.9468 11.7654 37.7925 12.4823 38.5013C13.1991 39.21 14.0518 39.7671 14.9894 40.1394C15.9269 40.5116 16.93 40.6912 17.9387 40.6675C23.4732 40.6631 27.4484 35.6448 25.0614 29.4978Z" fill="#8D527F"/>
<path d="M60.8998 25.9376C54.5075 25.9376 52.0031 32.1616 52.0031 35.2742V49.0843C52.0012 49.1044 51.9923 49.1232 51.978 49.1374C51.9637 49.1517 51.9449 49.1605 51.9248 49.1625H41.8112V17.0676C41.8132 17.0476 41.8221 17.0288 41.8363 17.0146C41.8506 17.0003 41.8694 16.9915 41.8895 16.9895H52.0042V22.1541C53.8263 16.9214 59.0688 16.6099 60.364 16.6099L64.0082 16.6881V25.9465L60.8998 25.9376Z" fill="#8D527F"/>
<path d="M84.6168 17.0592C84.6168 17.0384 84.625 17.0186 84.6397 17.0039C84.6544 16.9892 84.6743 16.981 84.6951 16.981H94.7953V49.0759C94.7953 49.0966 94.787 49.1165 94.7723 49.1311C94.7576 49.1458 94.7377 49.154 94.7169 49.154H84.6168V17.0592Z" fill="#8D527F"/>
<path d="M135.441 49.0854C135.439 49.1054 135.43 49.1242 135.416 49.1384C135.402 49.1527 135.383 49.1615 135.363 49.1635H125.171V46.3523C122.666 49.1635 119.243 49.9997 115.67 49.9997C106.618 49.9997 99.3979 42.408 99.3979 33.077C99.3979 23.746 106.618 16.1543 115.67 16.1543C119.249 16.1543 122.666 16.9805 125.171 19.7916V16.9805H135.441V49.0854ZM124.469 29.4978C124.013 28.3502 123.178 27.3926 122.102 26.7837C115.963 23.3697 109.668 27.1041 109.668 33.0759C109.655 34.0824 109.845 35.0813 110.227 36.0129C110.609 36.9444 111.176 37.7895 111.892 38.4976C112.609 39.2058 113.462 39.7624 114.399 40.1343C115.336 40.5061 116.339 40.6856 117.347 40.662C122.881 40.6631 126.856 35.6448 124.469 29.4978Z" fill="#8D527F"/>
<path d="M69.2506 17.0592C69.2526 17.0391 69.2615 17.0204 69.2758 17.0061C69.2901 16.9919 69.3089 16.983 69.3289 16.981H79.4437V49.0759C79.4437 49.0966 79.4354 49.1165 79.4207 49.1311C79.4061 49.1458 79.3861 49.154 79.3654 49.154H69.2506V17.0592Z" fill="#8D527F"/>
<path d="M89.7127 12.0015C93.0331 12.0015 95.7248 9.31489 95.7248 6.00076C95.7248 2.68663 93.0331 0 89.7127 0C86.3924 0 83.7007 2.68663 83.7007 6.00076C83.7007 9.31489 86.3924 12.0015 89.7127 12.0015Z" fill="#EDB4BB"/>
<path d="M74.3466 12.0015C77.6669 12.0015 80.3586 9.31489 80.3586 6.00076C80.3586 2.68663 77.6669 0 74.3466 0C71.0262 0 68.3345 2.68663 68.3345 6.00076C68.3345 9.31489 71.0262 12.0015 74.3466 12.0015Z" fill="#F26674"/>
<path d="M152.329 22.6144H149.279L148.548 24.6385H147.287L150.202 17.1382H151.474L154.377 24.6385H153.06L152.329 22.6144ZM150.81 18.3976L149.628 21.6474H151.98L150.81 18.3976Z" fill="#312A4B"/>
<path d="M159.019 24.5825V23.9415C158.659 24.4513 158.108 24.7062 157.365 24.7062C156.893 24.7062 156.476 24.5975 156.116 24.3801C155.763 24.1627 155.486 23.8591 155.283 23.4692C155.088 23.0794 154.991 22.6259 154.991 22.1086C154.991 21.5239 155.118 21.0179 155.373 20.5906C155.628 20.1633 155.985 19.8334 156.442 19.601C156.908 19.3611 157.451 19.2412 158.074 19.2412C158.412 19.2412 158.764 19.2749 159.132 19.3424C159.5 19.4024 159.833 19.4923 160.134 19.6123V24.5375C160.134 25.3396 159.901 25.9581 159.436 26.3929C158.971 26.8277 158.303 27.0451 157.433 27.0451C156.57 27.0451 155.853 26.824 155.283 26.3817L155.778 25.5495C156.281 25.9094 156.825 26.0893 157.41 26.0893C158.483 26.0893 159.019 25.587 159.019 24.5825ZM158.997 22.2548V20.3544C158.674 20.272 158.374 20.2307 158.097 20.2307C157.481 20.2307 157.001 20.3957 156.656 20.7255C156.319 21.0479 156.15 21.4976 156.15 22.0749C156.15 22.5772 156.281 22.982 156.544 23.2893C156.806 23.5892 157.155 23.7391 157.59 23.7391C158.01 23.7391 158.348 23.6004 158.603 23.3231C158.866 23.0457 158.997 22.6896 158.997 22.2548Z" fill="#312A4B"/>
<path d="M161.435 22.0299C161.435 21.4902 161.548 21.0104 161.773 20.5906C161.998 20.1708 162.306 19.8409 162.696 19.601C163.094 19.3611 163.547 19.2412 164.058 19.2412C164.575 19.2412 165.025 19.3649 165.408 19.6123C165.798 19.8521 166.102 20.1932 166.32 20.6355C166.537 21.0703 166.646 21.5764 166.646 22.1536V22.3672H162.572C162.617 22.8245 162.79 23.1844 163.09 23.4468C163.397 23.7091 163.802 23.8403 164.305 23.8403C164.913 23.8403 165.457 23.6304 165.937 23.2106L166.5 23.919C166.23 24.1964 165.896 24.4138 165.498 24.5712C165.1 24.7212 164.68 24.7961 164.238 24.7961C163.682 24.7961 163.195 24.6799 162.775 24.4475C162.355 24.2152 162.024 23.8928 161.784 23.4805C161.552 23.0607 161.435 22.5772 161.435 22.0299ZM165.521 21.5689C165.476 21.1491 165.325 20.8192 165.07 20.5793C164.823 20.3394 164.496 20.2195 164.091 20.2195C163.671 20.2195 163.326 20.3432 163.056 20.5906C162.786 20.8305 162.625 21.1566 162.572 21.5689H165.521Z" fill="#312A4B"/>
<path d="M167.626 22.1646C167.626 21.5949 167.742 21.0926 167.975 20.6578C168.215 20.2155 168.537 19.8707 168.943 19.6233C169.355 19.3684 169.82 19.241 170.338 19.241C170.796 19.241 171.231 19.3572 171.643 19.5896V17.1382H172.78V24.6385H171.722L171.677 23.9751C171.505 24.2374 171.272 24.4399 170.98 24.5823C170.694 24.7247 170.368 24.7959 170 24.7959C169.528 24.7959 169.111 24.6872 168.751 24.4698C168.399 24.2449 168.121 23.9376 167.919 23.5478C167.723 23.1504 167.626 22.6894 167.626 22.1646ZM168.785 22.0859C168.785 22.6107 168.916 23.0305 169.179 23.3454C169.442 23.6527 169.79 23.8064 170.226 23.8064C170.646 23.8064 170.987 23.6677 171.25 23.3903C171.512 23.113 171.643 22.7569 171.643 22.3221V20.6016C171.276 20.3542 170.882 20.2305 170.462 20.2305C169.952 20.2305 169.543 20.3992 169.235 20.7365C168.935 21.0664 168.785 21.5162 168.785 22.0859Z" fill="#312A4B"/>
<path d="M176.319 20.9054C176.319 20.3357 176.412 19.8109 176.6 19.3311C176.787 18.8514 177.05 18.4353 177.388 18.083C177.733 17.7231 178.134 17.4458 178.592 17.2508C179.049 17.0559 179.552 16.9585 180.1 16.9585C180.722 16.9585 181.289 17.0897 181.799 17.352C182.317 17.6069 182.737 17.9705 183.059 18.4428L182.215 19.1625C181.728 18.4203 181.038 18.0492 180.145 18.0492C179.642 18.0492 179.199 18.1692 178.817 18.4091C178.434 18.649 178.134 18.9825 177.917 19.4099C177.699 19.8372 177.59 20.3319 177.59 20.8942C177.59 21.4489 177.695 21.9399 177.905 22.3672C178.123 22.7946 178.419 23.1282 178.794 23.368C179.177 23.6079 179.62 23.7279 180.122 23.7279C180.955 23.7279 181.664 23.3568 182.249 22.6146L183.071 23.3118C182.733 23.7916 182.305 24.1627 181.788 24.4251C181.27 24.6874 180.696 24.8186 180.066 24.8186C179.338 24.8186 178.693 24.6537 178.13 24.3239C177.568 23.9865 177.125 23.5255 176.802 22.9407C176.48 22.3485 176.319 21.6701 176.319 20.9054Z" fill="#312A4B"/>
<path d="M183.979 23.1207C183.979 22.5584 184.185 22.1161 184.598 21.7938C185.018 21.4714 185.615 21.3102 186.387 21.3102C186.74 21.3102 187.115 21.3402 187.513 21.4002V21.209C187.513 20.5193 187.085 20.1745 186.23 20.1745C185.637 20.1745 185.131 20.3357 184.71 20.658L184.215 19.8934C184.808 19.4586 185.509 19.2412 186.32 19.2412C187.047 19.2412 187.61 19.4136 188.008 19.7584C188.405 20.0958 188.604 20.5681 188.604 21.1753V24.6387H187.603L187.558 23.964C187.385 24.2264 187.145 24.4326 186.837 24.5825C186.537 24.7249 186.192 24.7961 185.802 24.7961C185.254 24.7961 184.812 24.6462 184.474 24.3463C184.144 24.039 183.979 23.6304 183.979 23.1207ZM185.082 23.0644C185.082 23.3418 185.168 23.5555 185.341 23.7054C185.521 23.8553 185.768 23.9303 186.083 23.9303C186.354 23.9303 186.594 23.8778 186.804 23.7729C187.021 23.6679 187.194 23.5255 187.321 23.3456C187.449 23.1656 187.513 22.9707 187.513 22.7608V22.1761C187.138 22.1161 186.804 22.0861 186.511 22.0861C186.053 22.0861 185.701 22.1686 185.453 22.3335C185.206 22.4984 185.082 22.7421 185.082 23.0644Z" fill="#312A4B"/>
<path d="M190.1 19.4098H191.158L191.214 20.2644C191.394 19.9645 191.627 19.7321 191.912 19.5672C192.205 19.4023 192.527 19.3198 192.88 19.3198C193.075 19.3198 193.27 19.3498 193.465 19.4098L193.251 20.4443C193.094 20.3918 192.929 20.3656 192.756 20.3656C192.321 20.3656 191.957 20.508 191.664 20.7929C191.379 21.0777 191.237 21.4526 191.237 21.9174V24.6386H190.1V19.4098Z" fill="#312A4B"/>
<path d="M194.044 22.0299C194.044 21.4902 194.157 21.0104 194.382 20.5906C194.607 20.1708 194.915 19.8409 195.305 19.601C195.702 19.3611 196.156 19.2412 196.666 19.2412C197.184 19.2412 197.634 19.3649 198.017 19.6123C198.407 19.8521 198.711 20.1932 198.928 20.6355C199.146 21.0703 199.255 21.5764 199.255 22.1536V22.3672H195.181C195.226 22.8245 195.398 23.1844 195.699 23.4468C196.006 23.7091 196.411 23.8403 196.914 23.8403C197.522 23.8403 198.066 23.6304 198.546 23.2106L199.108 23.919C198.838 24.1964 198.504 24.4138 198.107 24.5712C197.709 24.7212 197.289 24.7961 196.846 24.7961C196.291 24.7961 195.804 24.6799 195.383 24.4475C194.963 24.2152 194.633 23.8928 194.393 23.4805C194.161 23.0607 194.044 22.5772 194.044 22.0299ZM198.129 21.5689C198.084 21.1491 197.934 20.8192 197.679 20.5793C197.432 20.3394 197.105 20.2195 196.7 20.2195C196.28 20.2195 195.935 20.3432 195.665 20.5906C195.395 20.8305 195.233 21.1566 195.181 21.5689H198.129Z" fill="#312A4B"/>
<path d="M204.989 17.1382H207.544C208.361 17.1382 208.999 17.3406 209.457 17.7454C209.922 18.1427 210.154 18.69 210.154 19.3872C210.154 19.8894 210.031 20.3205 209.783 20.6803C209.543 21.0327 209.209 21.2913 208.781 21.4562L210.515 24.6385H209.175L207.622 21.6586C207.615 21.6586 207.607 21.6586 207.6 21.6586H206.171V24.6385H204.989V17.1382ZM208.939 19.4097C208.939 19.0048 208.812 18.6937 208.556 18.4763C208.309 18.2514 207.964 18.139 207.521 18.139H206.171V20.6578H207.521C207.971 20.6578 208.32 20.5491 208.568 20.3317C208.815 20.1068 208.939 19.7995 208.939 19.4097Z" fill="#312A4B"/>
<path d="M211.16 22.0299C211.16 21.4902 211.273 21.0104 211.498 20.5906C211.723 20.1708 212.031 19.8409 212.421 19.601C212.818 19.3611 213.272 19.2412 213.782 19.2412C214.3 19.2412 214.75 19.3649 215.133 19.6123C215.523 19.8521 215.827 20.1932 216.044 20.6355C216.262 21.0703 216.371 21.5764 216.371 22.1536V22.3672H212.297C212.342 22.8245 212.515 23.1844 212.815 23.4468C213.122 23.7091 213.527 23.8403 214.03 23.8403C214.638 23.8403 215.182 23.6304 215.662 23.2106L216.224 23.919C215.954 24.1964 215.621 24.4138 215.223 24.5712C214.825 24.7212 214.405 24.7961 213.962 24.7961C213.407 24.7961 212.92 24.6799 212.5 24.4475C212.079 24.2152 211.749 23.8928 211.509 23.4805C211.277 23.0607 211.16 22.5772 211.16 22.0299ZM215.245 21.5689C215.2 21.1491 215.05 20.8192 214.795 20.5793C214.548 20.3394 214.221 20.2195 213.816 20.2195C213.396 20.2195 213.051 20.3432 212.781 20.5906C212.511 20.8305 212.349 21.1566 212.297 21.5689H215.245Z" fill="#312A4B"/>
<path d="M220.671 23.2106C220.671 23.0157 220.584 22.862 220.412 22.7496C220.247 22.6371 219.954 22.5397 219.534 22.4572L219.163 22.3897C218.622 22.2848 218.217 22.1011 217.947 21.8387C217.685 21.5764 217.553 21.254 217.553 20.8717C217.553 20.3769 217.748 19.9833 218.139 19.691C218.529 19.3911 219.054 19.2412 219.714 19.2412C220.479 19.2412 221.125 19.4623 221.65 19.9046L221.121 20.6693C220.693 20.3244 220.205 20.152 219.658 20.152C218.99 20.152 218.656 20.3619 218.656 20.7817C218.656 20.9691 218.731 21.1153 218.881 21.2203C219.039 21.3177 219.309 21.4039 219.692 21.4789L220.074 21.5576C220.674 21.6776 221.11 21.8687 221.38 22.1311C221.657 22.386 221.796 22.7121 221.796 23.1094C221.796 23.6492 221.593 24.0652 221.188 24.3576C220.783 24.65 220.235 24.7961 219.545 24.7961C219.088 24.7961 218.664 24.7287 218.274 24.5937C217.883 24.4513 217.561 24.2564 217.306 24.009L217.913 23.2556C218.131 23.458 218.379 23.6154 218.656 23.7279C218.934 23.8328 219.238 23.8853 219.568 23.8853C219.92 23.8853 220.19 23.8291 220.378 23.7166C220.573 23.5967 220.671 23.428 220.671 23.2106Z" fill="#312A4B"/>
<path d="M222.872 22.0299C222.872 21.4902 222.985 21.0104 223.21 20.5906C223.435 20.1708 223.743 19.8409 224.133 19.601C224.531 19.3611 224.984 19.2412 225.495 19.2412C226.012 19.2412 226.462 19.3649 226.845 19.6123C227.235 19.8521 227.539 20.1932 227.757 20.6355C227.974 21.0703 228.083 21.5764 228.083 22.1536V22.3672H224.009C224.054 22.8245 224.227 23.1844 224.527 23.4468C224.834 23.7091 225.239 23.8403 225.742 23.8403C226.35 23.8403 226.894 23.6304 227.374 23.2106L227.937 23.919C227.667 24.1964 227.333 24.4138 226.935 24.5712C226.537 24.7212 226.117 24.7961 225.675 24.7961C225.119 24.7961 224.632 24.6799 224.212 24.4475C223.792 24.2152 223.461 23.8928 223.221 23.4805C222.989 23.0607 222.872 22.5772 222.872 22.0299ZM226.958 21.5689C226.913 21.1491 226.762 20.8192 226.507 20.5793C226.26 20.3394 225.933 20.2195 225.528 20.2195C225.108 20.2195 224.763 20.3432 224.493 20.5906C224.223 20.8305 224.062 21.1566 224.009 21.5689H226.958Z" fill="#312A4B"/>
<path d="M229.029 23.1207C229.029 22.5584 229.235 22.1161 229.648 21.7938C230.068 21.4714 230.665 21.3102 231.437 21.3102C231.79 21.3102 232.165 21.3402 232.563 21.4002V21.209C232.563 20.5193 232.135 20.1745 231.28 20.1745C230.687 20.1745 230.181 20.3357 229.761 20.658L229.266 19.8934C229.858 19.4586 230.56 19.2412 231.37 19.2412C232.098 19.2412 232.66 19.4136 233.058 19.7584C233.456 20.0958 233.654 20.5681 233.654 21.1753V24.6387H232.653L232.608 23.964C232.435 24.2264 232.195 24.4326 231.888 24.5825C231.588 24.7249 231.242 24.7961 230.852 24.7961C230.305 24.7961 229.862 24.6462 229.524 24.3463C229.194 24.039 229.029 23.6304 229.029 23.1207ZM230.132 23.0644C230.132 23.3418 230.218 23.5555 230.391 23.7054C230.571 23.8553 230.819 23.9303 231.134 23.9303C231.404 23.9303 231.644 23.8778 231.854 23.7729C232.071 23.6679 232.244 23.5255 232.372 23.3456C232.499 23.1656 232.563 22.9707 232.563 22.7608V22.1761C232.188 22.1161 231.854 22.0861 231.561 22.0861C231.104 22.0861 230.751 22.1686 230.503 22.3335C230.256 22.4984 230.132 22.7421 230.132 23.0644Z" fill="#312A4B"/>
<path d="M235.15 19.4098H236.208L236.264 20.2644C236.445 19.9645 236.677 19.7321 236.962 19.5672C237.255 19.4023 237.577 19.3198 237.93 19.3198C238.125 19.3198 238.32 19.3498 238.515 19.4098L238.301 20.4443C238.144 20.3918 237.979 20.3656 237.806 20.3656C237.371 20.3656 237.007 20.508 236.715 20.7929C236.43 21.0777 236.287 21.4526 236.287 21.9174V24.6386H235.15V19.4098Z" fill="#312A4B"/>
<path d="M239.061 22.0411C239.061 21.5014 239.184 21.0216 239.432 20.6018C239.68 20.1745 240.017 19.8409 240.445 19.601C240.88 19.3611 241.368 19.2412 241.908 19.2412C242.726 19.2412 243.397 19.5335 243.922 20.1183L243.236 20.8379C243.071 20.643 242.876 20.4931 242.651 20.3882C242.426 20.2832 242.182 20.2307 241.919 20.2307C241.589 20.2307 241.296 20.3094 241.041 20.4669C240.786 20.6168 240.584 20.8267 240.434 21.0966C240.291 21.3665 240.22 21.6776 240.22 22.0299C240.22 22.5547 240.377 22.982 240.692 23.3118C241.015 23.6417 241.424 23.8066 241.919 23.8066C242.467 23.8066 242.924 23.6004 243.292 23.1881L243.945 23.919C243.427 24.5038 242.737 24.7961 241.874 24.7961C241.334 24.7961 240.85 24.6799 240.422 24.4475C240.002 24.2077 239.668 23.8816 239.421 23.4692C239.181 23.0569 239.061 22.5809 239.061 22.0411Z" fill="#312A4B"/>
<path d="M245.06 17.1382H246.197V20.1518C246.377 19.8594 246.621 19.6345 246.928 19.4771C247.236 19.3197 247.585 19.241 247.975 19.241C248.59 19.241 249.066 19.4359 249.404 19.8257C249.749 20.208 249.922 20.744 249.922 21.4337V24.6385H248.785V21.5912C248.785 21.1489 248.684 20.8153 248.481 20.5904C248.286 20.358 248.001 20.2418 247.626 20.2418C247.191 20.2418 246.842 20.3955 246.579 20.7028C246.324 21.0102 246.197 21.4225 246.197 21.9397V24.6385H245.06V17.1382Z" fill="#312A4B"/>
<path d="M147.557 34.9683C147.557 34.0912 148.071 33.3153 149.099 32.6406C148.634 32.0934 148.401 31.5536 148.401 31.0214C148.401 30.6615 148.491 30.3467 148.671 30.0768C148.851 29.7994 149.099 29.582 149.414 29.4246C149.737 29.2672 150.104 29.1885 150.517 29.1885C151.425 29.1885 152.07 29.6008 152.453 30.4254L151.631 30.9764C151.481 30.6915 151.32 30.4891 151.147 30.3692C150.975 30.2417 150.772 30.178 150.539 30.178C150.239 30.178 149.999 30.2567 149.819 30.4142C149.647 30.5716 149.56 30.7815 149.56 31.0439C149.56 31.2013 149.605 31.3625 149.695 31.5274C149.785 31.6923 149.939 31.8985 150.157 32.1459L152.183 34.4511L153.184 33.2254L153.994 33.9001L152.88 35.2382L154.321 36.8799H152.813L152.115 36.0816C151.777 36.4264 151.436 36.6775 151.091 36.835C150.746 36.9849 150.363 37.0599 149.943 37.0599C149.47 37.0599 149.054 36.9736 148.694 36.8012C148.341 36.6213 148.064 36.3739 147.861 36.0591C147.659 35.7442 147.557 35.3806 147.557 34.9683ZM148.739 34.8221C148.739 35.197 148.855 35.4931 149.088 35.7105C149.32 35.9279 149.632 36.0366 150.022 36.0366C150.284 36.0366 150.524 35.9804 150.742 35.8679C150.967 35.7555 151.203 35.5718 151.451 35.3169L149.718 33.3491C149.365 33.5889 149.114 33.8251 148.964 34.0575C148.814 34.2899 148.739 34.5448 148.739 34.8221Z" fill="#312A4B"/>
<path d="M157.159 29.3794H158.374V36.8797H157.159V29.3794Z" fill="#312A4B"/>
<path d="M159.824 31.6511H160.882L160.927 32.4157C161.107 32.1234 161.351 31.8947 161.659 31.7298C161.974 31.5649 162.33 31.4824 162.728 31.4824C163.35 31.4824 163.831 31.6773 164.168 32.0671C164.513 32.4495 164.686 32.9855 164.686 33.6752V36.8799H163.549V33.8326C163.549 33.3903 163.448 33.0567 163.245 32.8318C163.05 32.5994 162.765 32.4832 162.39 32.4832C161.955 32.4832 161.606 32.6369 161.344 32.9442C161.089 33.2516 160.961 33.6639 160.961 34.1812V36.8799H159.824V31.6511Z" fill="#312A4B"/>
<path d="M165.686 34.4059C165.686 33.8361 165.802 33.3339 166.034 32.8991C166.275 32.4568 166.597 32.1119 167.002 31.8645C167.415 31.6097 167.88 31.4822 168.398 31.4822C168.855 31.4822 169.29 31.5984 169.703 31.8308V29.3794H170.84V36.8797H169.782L169.737 36.2163C169.564 36.4787 169.332 36.6811 169.039 36.8235C168.754 36.966 168.428 37.0372 168.06 37.0372C167.587 37.0372 167.171 36.9285 166.811 36.7111C166.458 36.4862 166.181 36.1788 165.978 35.789C165.783 35.3917 165.686 34.9306 165.686 34.4059ZM166.845 34.3272C166.845 34.8519 166.976 35.2717 167.239 35.5866C167.501 35.8939 167.85 36.0476 168.285 36.0476C168.705 36.0476 169.047 35.9089 169.309 35.6316C169.572 35.3542 169.703 34.9981 169.703 34.5633V32.8428C169.335 32.5955 168.942 32.4718 168.521 32.4718C168.011 32.4718 167.602 32.6404 167.295 32.9778C166.995 33.3076 166.845 33.7574 166.845 34.3272Z" fill="#312A4B"/>
<path d="M172.097 34.8332V31.6509H173.233V34.6758C173.233 35.118 173.327 35.4591 173.515 35.699C173.71 35.9314 173.983 36.0476 174.336 36.0476C174.771 36.0476 175.116 35.8864 175.371 35.5641C175.634 35.2342 175.765 34.7994 175.765 34.2597V31.6509H176.902V36.8797H175.855L175.81 36.0814C175.63 36.3812 175.383 36.6174 175.068 36.7898C174.76 36.9547 174.411 37.0372 174.021 37.0372C173.421 37.0372 172.948 36.846 172.603 36.4637C172.265 36.0739 172.097 35.5304 172.097 34.8332Z" fill="#312A4B"/>
<path d="M181.256 35.4518C181.256 35.2569 181.17 35.1033 180.998 34.9908C180.833 34.8784 180.54 34.7809 180.12 34.6984L179.748 34.631C179.208 34.526 178.803 34.3424 178.533 34.08C178.271 33.8176 178.139 33.4952 178.139 33.1129C178.139 32.6181 178.334 32.2246 178.724 31.9322C179.115 31.6323 179.64 31.4824 180.3 31.4824C181.065 31.4824 181.71 31.7036 182.236 32.1459L181.707 32.9105C181.279 32.5657 180.791 32.3932 180.244 32.3932C179.576 32.3932 179.242 32.6031 179.242 33.023C179.242 33.2104 179.317 33.3566 179.467 33.4615C179.625 33.559 179.895 33.6452 180.277 33.7201L180.66 33.7989C181.26 33.9188 181.695 34.11 181.965 34.3723C182.243 34.6272 182.382 34.9533 182.382 35.3506C182.382 35.8904 182.179 36.3065 181.774 36.5988C181.369 36.8912 180.821 37.0374 180.131 37.0374C179.673 37.0374 179.25 36.9699 178.859 36.835C178.469 36.6925 178.147 36.4976 177.892 36.2502L178.499 35.4968C178.717 35.6992 178.964 35.8567 179.242 35.9691C179.52 36.0741 179.824 36.1265 180.154 36.1265C180.506 36.1265 180.776 36.0703 180.964 35.9579C181.159 35.8379 181.256 35.6692 181.256 35.4518Z" fill="#312A4B"/>
<path d="M182.986 31.6512H183.908V29.9307H185.045V31.6512H186.553V32.5733H185.045V35.1371C185.045 35.4669 185.105 35.7068 185.225 35.8568C185.345 36.0067 185.533 36.0817 185.788 36.0817C186.073 36.0817 186.339 35.973 186.587 35.7556L187.071 36.4752C186.673 36.8501 186.189 37.0375 185.619 37.0375C185.064 37.0375 184.64 36.88 184.347 36.5652C184.055 36.2428 183.908 35.7743 183.908 35.1596V32.5733H182.986V31.6512Z" fill="#312A4B"/>
<path d="M187.765 31.651H188.823L188.879 32.5056C189.059 32.2057 189.292 31.9733 189.577 31.8084C189.869 31.6435 190.192 31.561 190.545 31.561C190.74 31.561 190.935 31.591 191.13 31.651L190.916 32.6855C190.759 32.633 190.593 32.6068 190.421 32.6068C189.986 32.6068 189.622 32.7492 189.329 33.0341C189.044 33.319 188.902 33.6938 188.902 34.1586V36.8798H187.765V31.651Z" fill="#312A4B"/>
<path d="M195.875 31.6509H197.09L194.626 37.4645C194.438 37.9143 194.251 38.2704 194.063 38.5327C193.883 38.8026 193.688 38.9938 193.478 39.1062C193.275 39.2262 193.035 39.2861 192.758 39.2861C192.315 39.2861 191.925 39.155 191.587 38.8926L192.026 38.1167C192.266 38.2741 192.48 38.3528 192.668 38.3528C192.863 38.3528 193.032 38.2741 193.174 38.1167C193.324 37.9667 193.478 37.6969 193.635 37.307L193.827 36.8123L191.497 31.6509H192.769L194.389 35.5866L195.875 31.6509Z" fill="#312A4B"/>
<path d="M199.887 29.3794H201.102V36.8797H199.887V29.3794Z" fill="#312A4B"/>
<path d="M202.552 31.6511H203.61L203.655 32.4157C203.835 32.1234 204.079 31.8947 204.387 31.7298C204.702 31.5649 205.058 31.4824 205.456 31.4824C206.078 31.4824 206.558 31.6773 206.896 32.0671C207.241 32.4495 207.414 32.9855 207.414 33.6752V36.8799H206.277V33.8326C206.277 33.3903 206.176 33.0567 205.973 32.8318C205.778 32.5994 205.493 32.4832 205.118 32.4832C204.683 32.4832 204.334 32.6369 204.071 32.9442C203.816 33.2516 203.689 33.6639 203.689 34.1812V36.8799H202.552V31.6511Z" fill="#312A4B"/>
<path d="M208.672 31.6511H209.73L209.775 32.4157C209.955 32.1234 210.199 31.8947 210.507 31.7298C210.822 31.5649 211.178 31.4824 211.576 31.4824C212.198 31.4824 212.679 31.6773 213.016 32.0671C213.361 32.4495 213.534 32.9855 213.534 33.6752V36.8799H212.397V33.8326C212.397 33.3903 212.296 33.0567 212.093 32.8318C211.898 32.5994 211.613 32.4832 211.238 32.4832C210.803 32.4832 210.454 32.6369 210.191 32.9442C209.936 33.2516 209.809 33.6639 209.809 34.1812V36.8799H208.672V31.6511Z" fill="#312A4B"/>
<path d="M214.533 34.2486C214.533 33.7239 214.653 33.2554 214.894 32.843C215.141 32.4232 215.475 32.0934 215.895 31.8535C216.315 31.6061 216.792 31.4824 217.324 31.4824C217.857 31.4824 218.333 31.6061 218.754 31.8535C219.181 32.0934 219.515 32.4232 219.755 32.843C220.003 33.2554 220.126 33.7239 220.126 34.2486C220.126 34.7809 220.003 35.2607 219.755 35.688C219.515 36.1078 219.181 36.4376 218.754 36.6775C218.333 36.9174 217.857 37.0374 217.324 37.0374C216.792 37.0374 216.315 36.9174 215.895 36.6775C215.475 36.4376 215.141 36.1078 214.894 35.688C214.653 35.2607 214.533 34.7809 214.533 34.2486ZM215.693 34.2599C215.693 34.7847 215.843 35.2157 216.143 35.553C216.45 35.8829 216.844 36.0478 217.324 36.0478C217.639 36.0478 217.921 35.9729 218.168 35.8229C218.416 35.6655 218.611 35.4518 218.754 35.182C218.896 34.9121 218.967 34.6047 218.967 34.2599C218.967 33.9076 218.896 33.6002 218.754 33.3378C218.619 33.0679 218.427 32.858 218.18 32.7081C217.932 32.5507 217.651 32.472 217.336 32.472C216.855 32.472 216.462 32.6406 216.154 32.978C215.846 33.3078 215.693 33.7351 215.693 34.2599Z" fill="#312A4B"/>
<path d="M224.661 31.6509H225.876L223.625 36.8797H222.534L220.283 31.6509H221.555L223.119 35.6203L224.661 31.6509Z" fill="#312A4B"/>
<path d="M226.124 35.3619C226.124 34.7996 226.331 34.3573 226.743 34.035C227.163 33.7126 227.76 33.5515 228.533 33.5515C228.885 33.5515 229.26 33.5815 229.658 33.6414V33.4503C229.658 32.7606 229.23 32.4157 228.375 32.4157C227.782 32.4157 227.276 32.5769 226.856 32.8993L226.361 32.1346C226.953 31.6998 227.655 31.4824 228.465 31.4824C229.193 31.4824 229.756 31.6548 230.153 31.9997C230.551 32.337 230.75 32.8093 230.75 33.4165V36.8799H229.748L229.703 36.2052C229.53 36.4676 229.29 36.6738 228.983 36.8237C228.683 36.9662 228.338 37.0374 227.947 37.0374C227.4 37.0374 226.957 36.8874 226.619 36.5876C226.289 36.2802 226.124 35.8717 226.124 35.3619ZM227.227 35.3057C227.227 35.583 227.313 35.7967 227.486 35.9466C227.666 36.0966 227.914 36.1715 228.229 36.1715C228.499 36.1715 228.739 36.119 228.949 36.0141C229.167 35.9091 229.339 35.7667 229.467 35.5868C229.594 35.4069 229.658 35.212 229.658 35.0021V34.4173C229.283 34.3573 228.949 34.3274 228.656 34.3274C228.199 34.3274 227.846 34.4098 227.599 34.5747C227.351 34.7397 227.227 34.9833 227.227 35.3057Z" fill="#312A4B"/>
<path d="M231.548 31.6512H232.471V29.9307H233.607V31.6512H235.115V32.5733H233.607V35.1371C233.607 35.4669 233.667 35.7068 233.787 35.8568C233.907 36.0067 234.095 36.0817 234.35 36.0817C234.635 36.0817 234.901 35.973 235.149 35.7556L235.633 36.4752C235.235 36.8501 234.751 37.0375 234.181 37.0375C233.626 37.0375 233.202 36.88 232.909 36.5652C232.617 36.2428 232.471 35.7743 232.471 35.1596V32.5733H231.548V31.6512Z" fill="#312A4B"/>
<path d="M236.327 31.6511H237.464V36.8799H236.327V31.6511ZM236.282 29.5708H237.52V30.7403H236.282V29.5708Z" fill="#312A4B"/>
<path d="M238.507 34.2486C238.507 33.7239 238.627 33.2554 238.867 32.843C239.114 32.4232 239.448 32.0934 239.868 31.8535C240.289 31.6061 240.765 31.4824 241.298 31.4824C241.83 31.4824 242.307 31.6061 242.727 31.8535C243.155 32.0934 243.488 32.4232 243.728 32.843C243.976 33.2554 244.1 33.7239 244.1 34.2486C244.1 34.7809 243.976 35.2607 243.728 35.688C243.488 36.1078 243.155 36.4376 242.727 36.6775C242.307 36.9174 241.83 37.0374 241.298 37.0374C240.765 37.0374 240.289 36.9174 239.868 36.6775C239.448 36.4376 239.114 36.1078 238.867 35.688C238.627 35.2607 238.507 34.7809 238.507 34.2486ZM239.666 34.2599C239.666 34.7847 239.816 35.2157 240.116 35.553C240.424 35.8829 240.818 36.0478 241.298 36.0478C241.613 36.0478 241.894 35.9729 242.142 35.8229C242.389 35.6655 242.584 35.4518 242.727 35.182C242.869 34.9121 242.941 34.6047 242.941 34.2599C242.941 33.9076 242.869 33.6002 242.727 33.3378C242.592 33.0679 242.401 32.858 242.153 32.7081C241.905 32.5507 241.624 32.472 241.309 32.472C240.829 32.472 240.435 32.6406 240.127 32.978C239.82 33.3078 239.666 33.7351 239.666 34.2599Z" fill="#312A4B"/>
<path d="M245.138 31.6511H246.196L246.241 32.4157C246.421 32.1234 246.665 31.8947 246.973 31.7298C247.288 31.5649 247.644 31.4824 248.042 31.4824C248.665 31.4824 249.145 31.6773 249.482 32.0671C249.827 32.4495 250 32.9855 250 33.6752V36.8799H248.863V33.8326C248.863 33.3903 248.762 33.0567 248.56 32.8318C248.364 32.5994 248.079 32.4832 247.704 32.4832C247.269 32.4832 246.92 32.6369 246.658 32.9442C246.403 33.2516 246.275 33.6639 246.275 34.1812V36.8799H245.138V31.6511Z" fill="#312A4B"/>
<path d="M152.329 47.0973H149.279L148.548 49.1214H147.287L150.202 41.6211H151.474L154.377 49.1214H153.06L152.329 47.0973ZM150.81 42.8805L149.628 46.1302H151.98L150.81 42.8805Z" fill="#312A4B"/>
<path d="M155.159 47.0744V43.8921H156.296V46.917C156.296 47.3593 156.39 47.7004 156.577 47.9403C156.772 48.1727 157.046 48.2889 157.399 48.2889C157.834 48.2889 158.179 48.1277 158.434 47.8053C158.697 47.4755 158.828 47.0407 158.828 46.5009V43.8921H159.965V49.121H158.918L158.873 48.3226C158.693 48.6225 158.446 48.8586 158.13 49.031C157.823 49.1959 157.474 49.2784 157.084 49.2784C156.484 49.2784 156.011 49.0872 155.666 48.7049C155.328 48.3151 155.159 47.7716 155.159 47.0744Z" fill="#312A4B"/>
<path d="M164.488 47.6926C164.488 47.4977 164.402 47.344 164.229 47.2315C164.064 47.1191 163.772 47.0216 163.351 46.9392L162.98 46.8717C162.44 46.7668 162.035 46.5831 161.765 46.3207C161.502 46.0583 161.371 45.736 161.371 45.3536C161.371 44.8589 161.566 44.4653 161.956 44.1729C162.346 43.8731 162.871 43.7231 163.532 43.7231C164.297 43.7231 164.942 43.9443 165.467 44.3866L164.938 45.1512C164.511 44.8064 164.023 44.634 163.475 44.634C162.808 44.634 162.474 44.8439 162.474 45.2637C162.474 45.4511 162.549 45.5973 162.699 45.7022C162.856 45.7997 163.126 45.8859 163.509 45.9609L163.892 46.0396C164.492 46.1595 164.927 46.3507 165.197 46.6131C165.475 46.868 165.613 47.1941 165.613 47.5914C165.613 48.1311 165.411 48.5472 165.006 48.8396C164.601 49.1319 164.053 49.2781 163.363 49.2781C162.905 49.2781 162.481 49.2106 162.091 49.0757C161.701 48.9333 161.378 48.7383 161.123 48.491L161.731 47.7376C161.949 47.94 162.196 48.0974 162.474 48.2098C162.751 48.3148 163.055 48.3673 163.385 48.3673C163.738 48.3673 164.008 48.311 164.196 48.1986C164.391 48.0787 164.488 47.91 164.488 47.6926Z" fill="#312A4B"/>
<path d="M166.386 43.8923H167.309V42.1719H168.446V43.8923H169.954V44.8144H168.446V47.3782C168.446 47.7081 168.506 47.948 168.626 48.0979C168.746 48.2478 168.933 48.3228 169.188 48.3228C169.473 48.3228 169.74 48.2141 169.987 47.9967L170.471 48.7164C170.074 49.0912 169.59 49.2786 169.019 49.2786C168.464 49.2786 168.04 49.1212 167.748 48.8063C167.455 48.484 167.309 48.0154 167.309 47.4007V44.8144H166.386V43.8923Z" fill="#312A4B"/>
<path d="M171.334 43.8921H172.392L172.448 44.7467C172.628 44.4469 172.861 44.2145 173.146 44.0495C173.439 43.8846 173.761 43.8022 174.114 43.8022C174.309 43.8022 174.504 43.8321 174.699 43.8921L174.485 44.9266C174.328 44.8742 174.163 44.8479 173.99 44.8479C173.555 44.8479 173.191 44.9904 172.899 45.2752C172.613 45.5601 172.471 45.9349 172.471 46.3997V49.121H171.334V43.8921Z" fill="#312A4B"/>
<path d="M175.166 47.6026C175.166 47.0404 175.372 46.5981 175.784 46.2757C176.205 45.9534 176.801 45.7922 177.574 45.7922C177.926 45.7922 178.302 45.8222 178.699 45.8822V45.691C178.699 45.0013 178.272 44.6565 177.416 44.6565C176.824 44.6565 176.317 44.8176 175.897 45.14L175.402 44.3753C175.995 43.9405 176.696 43.7231 177.506 43.7231C178.234 43.7231 178.797 43.8956 179.194 44.2404C179.592 44.5778 179.791 45.05 179.791 45.6573V49.1207H178.789L178.744 48.446C178.572 48.7084 178.332 48.9145 178.024 49.0644C177.724 49.2069 177.379 49.2781 176.989 49.2781C176.441 49.2781 175.998 49.1282 175.661 48.8283C175.331 48.5209 175.166 48.1124 175.166 47.6026ZM176.268 47.5464C176.268 47.8238 176.355 48.0374 176.527 48.1874C176.707 48.3373 176.955 48.4122 177.27 48.4122C177.54 48.4122 177.78 48.3598 177.99 48.2548C178.208 48.1499 178.38 48.0074 178.508 47.8275C178.635 47.6476 178.699 47.4527 178.699 47.2428V46.6581C178.324 46.5981 177.99 46.5681 177.698 46.5681C177.24 46.5681 176.887 46.6506 176.64 46.8155C176.392 46.9804 176.268 47.224 176.268 47.5464Z" fill="#312A4B"/>
<path d="M181.23 41.6211H182.367V49.1214H181.23V41.6211Z" fill="#312A4B"/>
<path d="M183.838 43.8923H184.974V49.1212H183.838V43.8923ZM183.793 41.812H185.031V42.9815H183.793V41.812Z" fill="#312A4B"/>
<path d="M186.152 47.6026C186.152 47.0404 186.359 46.5981 186.771 46.2757C187.191 45.9534 187.788 45.7922 188.561 45.7922C188.913 45.7922 189.288 45.8222 189.686 45.8822V45.691C189.686 45.0013 189.258 44.6565 188.403 44.6565C187.81 44.6565 187.304 44.8176 186.884 45.14L186.389 44.3753C186.981 43.9405 187.683 43.7231 188.493 43.7231C189.221 43.7231 189.784 43.8956 190.181 44.2404C190.579 44.5778 190.778 45.05 190.778 45.6573V49.1207H189.776L189.731 48.446C189.558 48.7084 189.318 48.9145 189.011 49.0644C188.711 49.2069 188.366 49.2781 187.975 49.2781C187.428 49.2781 186.985 49.1282 186.648 48.8283C186.317 48.5209 186.152 48.1124 186.152 47.6026ZM187.255 47.5464C187.255 47.8238 187.341 48.0374 187.514 48.1874C187.694 48.3373 187.942 48.4122 188.257 48.4122C188.527 48.4122 188.767 48.3598 188.977 48.2548C189.195 48.1499 189.367 48.0074 189.495 47.8275C189.622 47.6476 189.686 47.4527 189.686 47.2428V46.6581C189.311 46.5981 188.977 46.5681 188.684 46.5681C188.227 46.5681 187.874 46.6506 187.627 46.8155C187.379 46.9804 187.255 47.224 187.255 47.5464Z" fill="#312A4B"/>
</g>
<defs>
<clipPath id="clip0_68_2754">
<rect width="250" height="50" fill="white"/>
</clipPath>
</defs>
</svg>
