<svg width="512" height="512" viewBox="0 0 512 512" fill="none" xmlns="http://www.w3.org/2000/svg">
<g clip-path="url(#clip0_823_15766)">
<path d="M0 358.193V426.848H46.3038L51.9519 413.222H15.1182V358.193H0Z" fill="#E9223C"/>
<path d="M86.2549 358.262H100.173L129.61 426.922H113.836L107.639 411.471H78.4952L72.2289 426.848H56.8177L86.2549 358.262ZM102.177 398.119L93.0654 375.844L83.9584 398.119H102.177Z" fill="#E9223C"/>
<path d="M176.757 372.126H155.19V358.196H213.408V372.126H191.861V426.848H176.757V372.126Z" fill="#E9223C"/>
<path d="M229.497 358.262H260.882C269.594 358.262 276.242 360.6 280.923 365.241C284.898 369.44 286.99 375.078 286.716 380.856V381.052C286.964 385.922 285.545 390.733 282.708 394.7C279.982 398.193 276.316 400.841 272.141 402.329L288.916 426.848H271.249L256.475 404.896H244.598V426.848H229.497V358.262ZM259.901 391.544C262.994 391.762 266.06 390.818 268.498 388.904C270.509 387.118 271.605 384.522 271.486 381.837V381.651C271.671 378.859 270.497 376.148 268.334 374.367C265.797 372.585 262.723 371.718 259.627 371.907H244.619V391.544H259.901Z" fill="#E9223C"/>
<path d="M333.722 428.029C328.729 428.078 323.777 427.129 319.148 425.244C314.87 423.478 310.959 420.911 307.64 417.685C304.384 414.511 301.814 410.707 300.096 406.5C298.277 402.145 297.351 397.467 297.381 392.745V392.53C297.343 387.8 298.277 383.111 300.133 378.76C303.747 370.145 310.655 363.333 319.314 359.83C323.966 357.926 328.955 356.97 333.981 357.03C338.974 356.974 343.933 357.926 348.551 359.83C352.829 361.589 356.733 364.148 360.047 367.374C363.28 370.559 365.851 374.352 367.607 378.541C369.414 382.914 370.329 387.611 370.3 392.348V392.53C370.333 397.259 369.4 401.948 367.551 406.3C365.763 410.526 363.181 414.37 359.936 417.615C356.625 420.896 352.692 423.492 348.37 425.244C343.744 427.126 338.788 428.074 333.796 428.029M333.903 414.115C336.766 414.144 339.603 413.57 342.229 412.441C344.725 411.393 346.959 409.822 348.792 407.83C350.603 405.833 352.029 403.519 353 401C354.022 398.374 354.537 395.57 354.507 392.745V392.53C354.529 389.685 354.018 386.86 353 384.208C348.74 373.448 336.57 368.174 325.811 372.43C325.655 372.492 325.496 372.552 325.344 372.622C322.885 373.689 320.677 375.259 318.859 377.229C317.055 379.222 315.629 381.533 314.651 384.041C313.621 386.685 313.1 389.504 313.122 392.348V392.53C313.104 395.385 313.621 398.211 314.651 400.87C315.614 403.426 317.081 405.751 318.97 407.722C322.829 411.87 328.259 414.193 333.922 414.115" fill="#E9223C"/>
<path d="M387.87 358.262H419.692C427.599 358.262 433.57 360.292 437.599 364.348C440.673 367.419 442.351 371.611 442.244 375.956V376.152C442.27 377.915 442.021 379.667 441.496 381.344C441.051 382.789 440.399 384.163 439.566 385.426C438.784 386.603 437.84 387.674 436.781 388.615C435.74 389.555 434.588 390.374 433.359 391.051C436.933 392.292 440.148 394.396 442.722 397.173C445.147 400.211 446.366 404.041 446.144 407.919V408.118C446.214 410.978 445.588 413.8 444.322 416.359C443.121 418.726 441.341 420.759 439.144 422.259C436.67 423.878 433.918 425.029 431.026 425.662C427.577 426.485 424.04 426.87 420.496 426.83H387.87V358.262ZM416.526 385.955C419.277 386.089 422.018 385.496 424.47 384.241C426.4 383.118 427.529 381.008 427.399 378.774V378.577C427.515 376.508 426.544 374.53 424.848 373.348C422.666 372.004 420.122 371.367 417.562 371.53H402.663V386.1L416.526 385.955ZM420.529 413.604C423.27 413.737 425.984 413.103 428.384 411.785C430.307 410.589 431.432 408.436 431.318 406.17V405.974C431.399 403.826 430.407 401.778 428.673 400.507C426.118 398.951 423.132 398.244 420.151 398.485H402.681V413.589L420.529 413.604Z" fill="#E9223C"/>
<path d="M459.831 358.193H511.511V371.637H474.73V385.57H501.616V399.011H474.73V413.441H512.001V426.848H459.831V358.193Z" fill="#E9223C"/>
<path d="M71.9997 476.948V456.404H65.7656V477.16C65.7656 487.418 71.2545 493.074 81.2034 493.074C91.1551 493.074 96.8952 487.337 96.8952 476.889V456.404H90.6953V477.218C90.6953 483.771 87.281 487.515 81.3323 487.515C75.3808 487.515 71.9845 483.655 71.9845 476.948" fill="white"/>
<path d="M111.182 456.404V492.47H117.301V465.989L137.467 492.47H142.982V456.404H136.878V482.112L117.301 456.404H111.182Z" fill="white"/>
<path d="M160.164 456.404H166.379V492.47H160.164V456.404Z" fill="white"/>
<path d="M186.459 456.404H179.57L194.152 492.47H200.103L214.696 456.404H208.003L197.236 485.411L186.459 456.404Z" fill="white"/>
<path d="M232.448 476.948H250.496V471.644H232.448V461.692H252.952V456.404H226.289V492.47H253.218V487.181H232.448V476.948Z" fill="white"/>
<path d="M273.091 474.929V461.807H282.547C287.377 461.807 290.255 464.249 290.255 468.36C290.255 472.471 287.295 474.929 282.762 474.929H273.091ZM289.103 478.856C293.773 477.381 296.851 472.93 296.585 468.037C296.729 465.055 295.666 462.145 293.636 459.955C291.306 457.641 287.714 456.404 283.251 456.404H266.862V492.47H273.091V480.218H281.354L289.54 492.47H296.795L287.814 479.348L289.103 478.856Z" fill="white"/>
<path d="M324.863 471.715C318.729 470.144 315.795 469.233 315.795 465.641C315.795 463.322 317.651 461.074 321.803 461.074C325.284 461.23 328.648 462.4 331.47 464.445L334.684 459.856C330.992 457.193 326.537 455.789 321.989 455.856C314.633 455.856 309.692 460.07 309.692 466.297C309.692 472.893 313.343 474.926 321.521 477.034C327.433 478.549 330.07 479.756 330.07 482.956C330.07 485.341 328.329 487.782 323.458 487.782C319.347 487.7 315.385 486.215 312.233 483.571L308.641 487.881C312.811 491.23 318 493.041 323.347 493.018C331.333 493.018 336.289 488.907 336.289 482.267C336.289 476.656 333.225 473.845 324.973 471.726" fill="white"/>
<path d="M349.831 456.404H356.05V492.47H349.831V456.404Z" fill="white"/>
<path d="M381.563 492.47H387.777V461.964H399.426V456.404H369.911V461.964H381.563V492.47Z" fill="white"/>
<path d="M436.952 456.404L427.014 472.796L417.278 456.404H410.062L423.859 478.17V492.47H430.088V477.985L443.885 456.404H436.952Z" fill="white"/>
<path d="M402.094 95.489C401.167 97.1738 399.824 98.596 398.19 99.6257C404.32 99.6257 402.094 95.489 402.094 95.489Z" fill="white"/>
<path d="M419.042 100.836C418.183 92.4405 413.693 91.7777 409.279 89.981C404.868 88.1852 396.941 86.0775 394.015 84.1631C391.06 82.6148 387.842 81.6335 384.527 81.2741C381.012 80.729 372.149 81.2741 368.086 80.6512C364.027 80.0254 357.783 78.8147 356.375 79.7144C354.101 84.2039 349.93 87.4295 345.012 88.5C338.886 90.4105 331.112 92.4035 325.49 94.003C325.49 91.0742 325.805 82.2887 333.297 69.4441C342.671 53.8291 345.286 48.5147 341.105 44.4149C336.93 40.3179 318.071 49.7293 318.071 49.7293C318.361 48.2331 318.557 46.7179 318.656 45.2C324.086 41.9962 344.66 30.5587 353.052 35.2444C362.779 40.6697 350.872 55.7405 349.778 57.1476C348.682 58.5518 335.445 78.3482 332.79 86.3885L338.338 84.8667C338.338 84.8667 350.635 65.1111 354.894 59.8773C359.145 54.6483 368.986 39.6144 361.101 32.9774C353.212 26.3403 340.483 29.0739 318.812 42.8922C319.049 35.7109 317.642 24.9371 307.727 21.1853C291.483 14.9815 236.234 19.3885 173.372 69.4849C156.315 81.9521 140.342 95.8367 125.619 110.985C103.405 134.022 82.6709 157.837 89.3117 161.507C96.5717 165.411 115.393 144.33 117.616 141.985C117.616 141.985 137.375 143.2 162.09 122.037C171.983 127.411 183.59 128.689 194.42 125.589C194.42 125.589 187.001 144.018 208.978 142.492C208.978 142.492 207.109 151.474 214.564 149.951C214.564 149.951 171.105 175.407 171.853 176.422C172.589 177.437 194.105 167.952 204.645 162.603C210.971 159.4 214.76 156.318 219.834 155.496C236.845 153.648 253.294 148.329 268.171 139.881C293.438 126.059 301.52 108.215 302.69 95.411C302.69 95.411 296.245 101.226 294.646 101.03C293.045 100.836 295.656 94.2372 296.323 89.981C296.989 85.7257 302.064 69.1701 297.338 71.1631C292.616 73.1552 277.82 87.915 272.23 78.4629C268.331 71.4741 279.223 58.3555 279.223 58.3555C279.223 58.3555 245.06 77.3327 238.771 67.5706C233.189 58.9035 242.675 51.9517 242.675 51.9517C215.92 63.1816 190.338 77.0331 166.304 93.2995C127.69 119.418 104.42 151.515 96.8865 152.763C89.3487 154.011 157.52 72.6887 231.042 43.4402C270.712 27.5891 297.42 25.5221 308.079 30.5179C314.323 33.4069 313.582 41.4112 313.582 43.3624C313.582 43.3624 308.038 95.8775 317.486 109.033C317.486 109.033 325.293 104.622 332.053 101.733C332.053 101.733 328.927 101.733 330.489 98.8813C331.309 97.3215 333.846 96.5033 337.475 95.3703C342.401 93.8068 350.872 93.144 355.397 89.8625C359.926 86.5847 359.305 85.2592 361.686 84.4779C366.297 85.3114 370.979 85.6773 375.664 85.5702C379.668 84.8705 383.76 84.8705 387.768 85.5702C393.775 88.4298 399.986 90.8438 406.356 92.7923C412.208 93.8845 412.871 94.315 414.823 97.752C416.219 100.285 417.023 103.1 417.167 105.989H416.934C412.953 104.582 408.734 103.974 404.516 104.196C406.741 104.43 408.968 105.363 405.69 106.144C402.408 106.925 392.727 110.048 392.727 110.048C395.086 107.508 397.979 105.522 401.197 104.234H389.486C391.827 102.019 393.379 99.0965 393.894 95.9183C394.942 95.7438 395.979 95.485 396.979 95.137C400.182 94.0438 396.626 93.1848 389.719 92.9108C385.567 92.7439 381.434 92.3144 377.342 91.6222L375.586 94.6667C377.575 93.8551 379.734 93.5441 381.871 93.7698C381.879 96.1771 383.694 98.1919 386.086 98.4517C387.286 98.6072 388.505 98.4148 389.601 97.9075C388.316 101.815 384.216 104.051 380.23 103.022C377.708 102.34 375.567 100.663 374.294 98.374C374.294 98.374 370.16 106.888 366.253 108.955C362.349 111.026 342.045 120.318 333.69 130.585C325.33 140.856 321.975 144.33 315.575 146.203C309.171 148.078 308.39 148.119 307.568 149.015C306.749 149.911 299.76 160.726 278.012 172.44C271.023 176.344 268.134 176.074 266.963 174.9C265.008 172.948 267.509 169.822 266.145 169.903C262.934 170.392 259.842 171.452 257.005 173.025C249.86 176.074 245.293 178.652 239.904 179.118C234.516 179.585 229.986 177.985 229.634 170.566C229.634 170.566 229.401 170.566 225.73 171.7C222.06 172.829 201.642 182.396 194.223 182.474C190.32 182.474 197.579 173.259 197.579 173.259C197.579 173.259 178.057 184.974 173.92 186.811C169.778 188.644 157.753 193.718 162.515 181.304C140.583 194.111 117.216 204.293 92.9005 211.641C79.4302 215.777 76.1894 213.985 76.305 217.3C76.305 218.863 77.8306 219.448 79.8606 219.566C84.1709 219.844 88.5011 219.704 92.7858 219.137C105.764 217.137 118.578 214.188 131.127 210.314C150.375 204.145 156.112 197.545 169.467 201.256C186.452 205.94 194.886 198.915 194.886 198.915C194.886 198.915 197.464 203.518 207.927 203.325C207.927 203.325 217.494 210.588 234.945 207.815C240.327 210.226 246.189 211.385 252.086 211.211C253.03 216.189 253.438 221.255 253.297 226.322C252.671 234.793 253.297 237.173 258.02 233C260.19 238.97 261.989 245.074 263.408 251.27C263.724 254.941 263.645 257.203 265.593 257.437C266.683 257.585 267.786 257.585 268.875 257.437C270.079 259.81 272.29 261.514 274.89 262.085C274.89 262.085 275.316 263.492 267.979 266.381C264.309 267.826 260.949 271.259 262.238 272.94H268.564C271.149 270.574 274.942 270.074 278.053 271.685C279.949 272.544 280.993 274.615 280.549 276.648C280.371 277.322 280.068 277.959 279.649 278.522C279.415 278.911 278.871 279.614 278.245 280.67C277.623 281.726 276.371 284.222 276.723 284.926C277.075 285.626 279.923 289.648 272.815 290.545C272.815 290.545 273.167 291.955 275.356 291.837C277.546 291.718 283.163 288.244 283.163 286.485C284.956 284.355 286.404 281.959 287.46 279.377C289.101 275.2 289.297 274.578 289.845 275.2C291.353 277.881 291.69 281.052 290.779 283.988C289.645 286.759 288.671 287.307 289.571 288.518C290.045 288.937 290.552 289.315 291.09 289.648C291.675 290.077 291.757 291.133 290.038 292.814C287.072 295.818 295.149 292.266 296.286 289.455C296.286 289.455 298.864 286.485 297.809 275.278C297.809 275.278 297.809 274.073 299.097 274.967C301.127 276.085 302.557 278.044 302.997 280.318C302.997 282.385 302.105 284.222 303.508 284.926C304.912 285.626 304.994 287.811 304.446 289.181C303.898 290.545 300.779 290.937 301.52 291.17C305.179 291.585 308.486 288.948 308.897 285.281C308.916 285.115 308.93 284.94 308.938 284.77C309.946 277.089 306.153 269.573 299.367 265.833C291.556 261.107 289.138 258.766 287.931 230.459C288.063 220.611 289.59 210.833 292.46 201.411C295.034 192.041 298.157 186.811 298.316 187.863C298.631 189.737 296.09 196.84 295.893 200.396C306.09 195.17 315.938 189.289 325.371 182.789C329.212 179.666 332.698 176.133 335.76 172.248C336.03 171.892 341.657 166.392 343.879 151.593L352.545 134.607C352.545 134.607 355.982 140.307 358.871 136.874C361.764 133.437 367.771 123.599 368.712 123.481C368.712 123.481 370.119 127.933 372.19 126.64C374.257 125.355 375.079 120.592 380.389 118.052C385.13 115.996 389.997 114.222 394.949 112.744C394.949 112.744 415.916 107.552 416.66 109.115C417.16 110.815 417.419 112.573 417.442 114.345C419.593 110.304 420.39 105.674 419.704 101.148M290.701 261.692C291.494 263.266 292.679 264.611 294.138 265.6C297.008 267.067 299.719 268.833 302.219 270.867C302.997 271.652 303.82 272.859 303.389 273.174C302.964 273.485 301.871 273.174 299.486 270.948C297.105 268.722 295.856 270.048 295.582 271.415C295.708 273.914 295.708 276.414 295.582 278.911C295.19 281.411 293.946 281.763 294.061 278.911C294.179 276.059 292.616 269.7 289.845 269.933C288.02 270.288 286.523 271.6 285.938 273.366C285.275 274.733 284.257 276.059 284.568 274.926C284.663 272.859 284.245 270.792 283.364 268.918C281.879 265.715 281.408 265.367 279.689 265.015C277.971 264.663 277.82 263.292 280.783 262.007C283.672 260.37 287.16 260.2 290.197 261.541" fill="white"/>
<path d="M169.467 205.667C163.764 203.522 155.489 205.667 147.331 209.259C139.171 212.852 99.927 226.126 77.5156 224.878C77.5156 224.878 80.8341 229.951 94.5415 232.137C94.5415 232.137 93.4085 239.948 106.916 236.862C120.427 233.777 168.845 212.189 179.034 206.407C175.857 207.293 172.471 207.029 169.467 205.667Z" fill="white"/>
<path d="M204.335 207.463C199.953 207.726 195.631 206.333 192.23 203.559L144.205 228.389C144.205 228.389 122.26 238.618 126.52 241.237C126.52 241.237 133.35 245.141 148.693 239.166C164.038 233.192 207.264 209.222 207.264 209.222C207.264 209.222 204.723 207.463 204.568 207.463" fill="white"/>
<path d="M224.714 211.874C220.97 212.123 217.222 211.463 213.781 209.963C213.781 209.963 187.855 226.437 182.977 229.097C178.096 231.749 170.367 234.871 179.073 236.237C187.777 237.604 196.718 236.704 211.244 224.175C216.022 220.326 220.581 216.219 224.911 211.874" fill="white"/>
<path d="M307.063 199.459C301.948 202.193 295.581 205.004 295.581 205.004C293.911 213.485 293.337 222.145 293.863 230.771C294.645 252.363 296.988 258.374 304.015 262.433C310.645 265.811 315.067 272.363 315.73 279.774C315.73 282.541 315.378 283.248 316.274 284.223C317.175 285.2 317.097 285.822 316.037 287.697C314.985 289.57 312.137 290.077 313.189 290.233C315.885 290.707 318.541 289.222 319.555 286.677C321.234 282.778 323.144 280.788 319.944 272.626C319.944 272.626 323.849 272.004 325.141 279.026C326.037 283.522 324.63 285.159 328.222 286.444C328.222 286.444 328.767 288.048 326.737 290.351C324.708 292.655 327.363 291.641 328.767 290.937C331.57 289.193 333.093 285.974 332.674 282.7C332.151 278.919 330.822 275.296 328.767 272.082C330.433 272.608 331.833 273.752 332.674 275.278C334.119 277.86 333.926 279.185 337.519 279.185C338.537 280.133 339.126 281.459 339.155 282.855C339.155 285.356 336.189 287.111 337.204 286.759C338.219 286.407 345.011 284.029 339.855 275.511C339.167 272.892 337.43 270.663 335.056 269.348C331.152 267.277 326.192 261.541 317.134 259.937C315.133 257.885 313.463 255.544 312.174 252.989C312.477 252.303 312.726 251.6 312.914 250.878C313.111 249.863 307.022 218.785 321.782 190.949C321.782 190.949 311.863 196.726 306.752 199.418M316.429 262.085C321.508 262.085 332.911 269.659 332.715 270.559C332.518 271.452 328.456 269.5 327.286 269.033C326.115 268.567 324.397 268.374 325.722 270.244C327.211 272.445 328.259 274.907 328.807 277.508C328.807 278.404 327.871 277.508 327.871 277.508C326.511 273.726 323.818 270.574 320.296 268.645C318.152 267.826 317.485 268.334 317.367 269.815C317.252 271.297 318.034 274.226 316.352 270.048C314.807 266.725 312.459 263.84 309.518 261.656C308.311 260.874 308.855 260.011 308.855 260.011C309.563 259.466 310.478 259.256 311.356 259.429C313.237 259.804 314.985 260.667 316.429 261.926" fill="white"/>
<path d="M212.768 282.974L223.661 287.426C223.383 291.515 225.264 295.455 228.62 297.812C227.875 299.848 226.512 301.593 224.716 302.807C224.053 303.315 223.505 303.433 223.661 303.626C223.82 303.822 224.25 303.626 224.675 303.392C235.064 299.489 236.079 289.767 235.609 283.13C235.357 279.296 233.605 275.715 230.731 273.174C230.731 273.174 248.22 275.593 254.587 274.308C260.95 273.015 254.587 272.741 254.587 272.741C241.35 272.741 226.59 267.552 219.094 270.011C212.775 272.237 208.542 278.193 208.512 284.886C207.498 290.996 209.909 297.171 214.801 300.971C215.231 301.323 215.816 301.834 215.894 301.756C215.971 301.674 215.501 300.934 215.305 300.619C212.035 295.374 211.18 288.97 212.964 283.052" fill="white"/>
<path d="M395.185 296.599C387.915 296.966 380.637 296.507 373.473 295.233L371.915 296.17C377.967 298.37 384.367 299.467 390.811 299.411C392.881 299.762 390.421 300.622 390.421 300.622C379.411 309.64 361.1 306.948 334.159 306.948C307.219 306.948 278.985 314.752 269.733 316.122C265.829 316.744 262.899 313.503 260.285 312.215C258.292 311.177 256.229 310.277 254.115 309.522C281.621 303.566 309.562 299.885 337.67 298.511C358.092 297.107 375.352 299.996 377.496 284.574C378.185 280.533 377.411 276.377 375.311 272.859C372.744 268.748 368.985 265.522 364.533 263.603C363.704 263.396 362.829 263.396 361.996 263.603C354.296 266.011 346.367 267.611 338.337 268.374C336.188 268.644 337.359 269.266 337.359 269.266C345.281 269.777 353.229 268.781 360.785 266.34C361.459 266.13 362.181 266.13 362.855 266.34C367.537 267.908 371.181 271.625 372.651 276.337C377.067 288.441 367.618 291.248 359.536 291.641C351.455 292.033 317.367 295.548 304.444 296.325C291.518 297.107 257.593 301.752 245.055 303.584C235.57 305.033 223.429 305.892 223.429 305.892C220.148 305.892 225.533 307.455 238.459 309.366C251.381 311.282 254.818 316.392 260.126 319.751C263.666 321.185 267.548 321.562 271.296 320.845C276.644 320.299 288.007 316.94 295.27 315.848C319.166 312.133 343.381 310.825 367.541 311.94C386.166 312.529 392.722 307.181 399.011 299.37C401.977 295.7 395.107 296.833 395.107 296.833" fill="white"/>
</g>
<defs>
<clipPath id="clip0_823_15766">
<rect width="512" height="474.074" fill="white" transform="translate(0 19)"/>
</clipPath>
</defs>
</svg>
