<svg width="241" height="50" viewBox="0 0 241 50" fill="none" xmlns="http://www.w3.org/2000/svg">
<path d="M53.9154 12.6514C53.7612 12.9311 53.5389 13.1678 53.2699 13.3364C54.2848 13.3364 53.9154 12.6514 53.9154 12.6514Z" fill="#010101"/>
<path d="M35.4847 40.1523C35.6174 40.4141 35.8111 40.6365 36.055 40.7978C36.5284 41.0417 36.9767 41.3322 37.3927 41.6693C37.5218 41.7985 37.6581 41.9993 37.5864 42.0495C37.5146 42.0997 37.3353 42.0495 36.9408 41.6801C36.5463 41.3107 36.3419 41.5295 36.2953 41.759C36.3168 42.1715 36.3168 42.5875 36.2953 42.9999C36.2307 43.4124 36.0227 43.4733 36.0442 42.9999C36.0621 42.5265 35.8039 41.4757 35.3484 41.5151C35.0472 41.5725 34.7997 41.7913 34.7029 42.0818C34.5953 42.3077 34.4267 42.5265 34.4769 42.34C34.4913 41.9993 34.4231 41.655 34.2761 41.3466C34.0286 40.8158 33.9533 40.7584 33.67 40.701C33.3866 40.6436 33.3615 40.4177 33.8493 40.2025C34.3263 39.9335 34.9037 39.9048 35.4058 40.1236M56.7201 13.5373C56.5766 12.1493 55.8342 12.0381 55.1062 11.7405C54.3745 11.4428 53.0655 11.0949 52.5813 10.7793C52.0935 10.5247 51.5592 10.3597 51.0104 10.3023C50.4294 10.2126 48.9626 10.3023 48.2919 10.1983C47.6212 10.0943 46.5848 9.89345 46.3552 10.0441C45.9786 10.7865 45.2901 11.3209 44.4759 11.4966C43.461 11.8122 42.177 12.1422 41.2445 12.4075C41.2445 11.9234 41.2983 10.4709 42.5357 8.34411C44.085 5.76187 44.519 4.8796 43.8268 4.20177C43.1346 3.52393 40.0144 5.08044 40.0144 5.08044C40.061 4.83298 40.0933 4.58193 40.1112 4.33088C41.0078 3.80008 44.415 1.91003 45.8029 2.6847C47.4132 3.58131 45.4407 6.07748 45.2614 6.31059C45.082 6.54371 42.8907 9.81814 42.4496 11.1487L43.3677 10.8977C43.3677 10.8977 45.4012 7.62682 46.1078 6.76249C46.8107 5.89815 48.4389 3.40916 47.1335 2.31171C45.828 1.21426 43.7228 1.66615 40.1363 3.9543C40.1758 2.76719 39.9427 0.981138 38.3001 0.360683C35.6138 -0.66504 26.472 0.0630081 16.0677 8.35128C13.2452 10.4135 10.602 12.7124 8.16676 15.2193C4.49066 19.0281 1.06202 22.9696 2.15947 23.5757C3.36093 24.2213 6.47396 20.7317 6.84337 20.3444C6.84337 20.3444 10.1142 20.5452 14.2028 17.0448C15.8382 17.9343 17.7605 18.1459 19.5537 17.633C19.5537 17.633 18.3272 20.6815 21.9638 20.4304C21.9638 20.4304 21.6554 21.9152 22.8891 21.6642C22.8891 21.6642 15.6983 25.8746 15.8202 26.0432C15.9422 26.2118 19.5035 24.6409 21.2465 23.7551C22.2938 23.2243 22.9214 22.715 23.7606 22.5787C26.576 22.2739 29.2981 21.3916 31.7584 19.9965C35.9402 17.7083 37.2779 14.7567 37.4716 12.6371C37.4716 12.6371 36.4064 13.5982 36.141 13.566C35.8756 13.5337 36.3096 12.4434 36.4172 11.7369C36.5284 11.0339 37.3676 8.2939 36.5858 8.62385C35.8039 8.9538 33.3544 11.3962 32.4327 9.83248C31.7871 8.67765 33.5911 6.50426 33.5911 6.50426C33.5911 6.50426 27.9388 9.64599 26.8988 8.0285C25.9735 6.59392 27.5443 5.44268 27.5443 5.44268C23.1079 7.30404 18.8759 9.59578 14.8985 12.2892C8.51106 16.6109 4.65922 21.9224 3.41472 22.1304C2.16664 22.3384 13.4496 8.87849 25.6148 4.04038C32.178 1.41868 36.5965 1.07439 38.361 1.90285C39.3939 2.37985 39.272 3.70684 39.272 4.02962C39.272 4.02962 38.3539 12.7196 39.9176 14.8965C39.9176 14.8965 41.2087 14.1649 42.3277 13.6879C42.3277 13.6879 41.8112 13.6879 42.0694 13.2145C42.2057 12.9563 42.6253 12.82 43.2243 12.6335C44.0384 12.3753 45.4407 12.2641 46.1903 11.7225C46.9398 11.181 46.8358 10.9622 47.2303 10.8295C47.9942 10.9658 48.7689 11.0268 49.5436 11.0088C50.2071 10.8941 50.8849 10.8941 51.5448 11.0088C52.5383 11.4822 53.5676 11.8803 54.622 12.2031C55.5903 12.3824 55.7015 12.4542 56.0243 13.0244C56.2538 13.444 56.3865 13.9103 56.4116 14.3873H56.3722C55.7123 14.1541 55.0165 14.0537 54.3171 14.0896C54.6865 14.129 55.0524 14.2833 54.5108 14.4124C53.9692 14.5415 52.3661 15.0579 52.3661 15.0579C52.757 14.6383 53.234 14.3084 53.7684 14.0968H51.8317C52.2191 13.7309 52.4773 13.2468 52.5598 12.7196C52.7319 12.6909 52.9041 12.6478 53.0691 12.5905C53.5998 12.4111 53.0117 12.2677 51.8676 12.2211C51.179 12.1924 50.4976 12.1206 49.8197 12.0059L49.5292 12.5116C49.8592 12.3753 50.2142 12.3251 50.5693 12.3645C50.5693 12.7626 50.8706 13.0961 51.2651 13.1392C51.4623 13.1643 51.6668 13.132 51.8461 13.0495C51.6345 13.6951 50.9531 14.0645 50.2967 13.8959C49.8807 13.7812 49.5256 13.505 49.314 13.1284C49.314 13.1284 48.629 14.5379 47.9835 14.8786C47.3379 15.2229 43.9774 16.7579 42.5966 18.4579C41.2123 20.1579 40.66 20.7317 39.5984 21.0437C38.5404 21.3521 38.4113 21.3593 38.275 21.5099C38.1387 21.657 36.9838 23.4466 33.3831 25.3869C32.2282 26.0325 31.7476 25.9894 31.554 25.7922C31.2312 25.4694 31.6436 24.9529 31.4177 24.9637C30.8869 25.0462 30.374 25.2183 29.9042 25.4801C28.7207 25.9858 27.9675 26.409 27.0745 26.4879C26.1815 26.5668 25.4319 26.3014 25.3745 25.0713C25.3745 25.0713 25.3351 25.0713 24.729 25.2578C24.1229 25.4443 20.7444 27.0295 19.5143 27.0402C18.8687 27.0402 20.0702 25.516 20.0702 25.516C20.0702 25.516 16.8388 27.4527 16.1538 27.7575C15.4688 28.0624 13.4783 28.9016 14.2673 26.8466C10.6378 28.9662 6.77164 30.6518 2.74765 31.8676C0.520464 32.5526 -0.017503 32.2549 0.000429202 32.8037C0.000429202 33.0619 0.25148 33.1587 0.588606 33.1802C1.30231 33.2269 2.0196 33.2018 2.72613 33.1085C4.87441 32.7786 6.994 32.2908 9.07055 31.6488C12.2553 30.6267 13.2057 29.5364 15.415 30.1497C18.2267 30.9244 19.6219 29.7624 19.6219 29.7624C19.6219 29.7624 20.0487 30.5227 21.7809 30.494C21.7809 30.494 23.3625 31.6954 26.2532 31.2364C27.1426 31.6345 28.1146 31.8281 29.0901 31.7995C29.2479 32.6243 29.3124 33.46 29.2909 34.2992C29.1869 35.7015 29.2909 36.096 30.0728 35.4038C30.4314 36.3937 30.7291 37.4015 30.9658 38.4272C31.0196 39.0333 31.0052 39.4099 31.328 39.4458C31.5073 39.4709 31.6903 39.4709 31.8696 39.4458C32.0704 39.8403 32.4327 40.12 32.863 40.2133C32.863 40.2133 32.9348 40.4464 31.7189 40.9234C31.1128 41.1637 30.5569 41.7303 30.7685 42.0101H31.8158C32.2426 41.6191 32.8702 41.5367 33.3866 41.802C33.7023 41.9455 33.8744 42.2862 33.7991 42.6233C33.7704 42.7345 33.7202 42.8421 33.6485 42.9354C33.609 42.9999 33.5193 43.1147 33.4153 43.2904C33.3113 43.4662 33.1069 43.8786 33.1643 43.9934C33.2217 44.1081 33.6951 44.7752 32.5187 44.9223C32.5187 44.9223 32.5761 45.1554 32.9383 45.1374C33.3006 45.1195 34.2295 44.5421 34.2295 44.2516C34.5271 43.9001 34.7674 43.502 34.9396 43.0752C35.2121 42.3831 35.2444 42.279 35.3341 42.3831C35.5816 42.8278 35.6389 43.3514 35.4883 43.8356C35.3018 44.2946 35.1404 44.3843 35.2875 44.5851C35.3664 44.6533 35.4489 44.7178 35.5385 44.7716C35.6353 44.8434 35.6497 45.0191 35.3628 45.2952C34.8714 45.7938 36.2092 45.2056 36.3957 44.7393C36.3957 44.7393 36.8225 44.248 36.6467 42.3938C36.6467 42.3938 36.6467 42.193 36.8619 42.3436C37.199 42.5301 37.4357 42.8529 37.5075 43.2295C37.5075 43.5702 37.3604 43.875 37.5935 43.9898C37.8267 44.1045 37.8374 44.4668 37.7478 44.6927C37.6581 44.9187 37.1417 44.9832 37.2636 45.0227C37.8697 45.0908 38.4148 44.6533 38.483 44.0472C38.4866 44.0185 38.4902 43.9898 38.4902 43.9611C38.6587 42.6915 38.0311 41.447 36.9085 40.8265C35.6174 40.0447 35.2157 39.6574 35.0149 34.9735C35.0364 33.3452 35.291 31.7241 35.7645 30.1676C36.1912 28.6183 36.7077 27.7504 36.7328 27.9261C36.7866 28.2381 36.3634 29.4109 36.3311 29.9991C38.0167 29.1347 39.6486 28.1592 41.2087 27.0869C41.8435 26.5704 42.4209 25.9858 42.9266 25.3439C42.9732 25.2865 43.9021 24.3755 44.2715 21.926L45.7061 19.1142C45.7061 19.1142 46.2763 20.0574 46.7533 19.4908C47.2303 18.9205 48.2274 17.2923 48.3816 17.2744C48.3816 17.2744 48.6147 18.0096 48.9554 17.798C49.2961 17.5864 49.4324 16.7974 50.3111 16.3777C51.0965 16.037 51.8999 15.7429 52.7212 15.4991C52.7212 15.4991 56.1893 14.6383 56.3148 14.9001C56.3973 15.1799 56.4403 15.474 56.4439 15.7645C56.799 15.0938 56.9317 14.3299 56.8205 13.5803" fill="#010101"/>
<path d="M15.4221 30.8852C14.4789 30.5302 13.1089 30.8852 11.7604 31.4806C10.4119 32.0759 3.91682 34.2708 0.208435 34.0664C0.208435 34.0664 0.757161 34.9056 3.02379 35.2679C3.02379 35.2679 2.8373 36.559 5.07165 36.0497C7.30601 35.5404 15.3181 31.9683 17.0038 31.0108C16.4801 31.1506 15.9206 31.1076 15.4221 30.8852Z" fill="#010101"/>
<path d="M21.1927 31.1793C20.4683 31.2223 19.751 30.9928 19.1915 30.5337L11.2439 34.6438C11.2439 34.6438 7.61445 36.3366 8.31739 36.7705C8.31739 36.7705 9.44712 37.4161 11.9863 36.4298C14.5255 35.4364 21.6769 31.4698 21.6769 31.4698C21.6769 31.4698 21.2573 31.1793 21.2322 31.1793" fill="#010101"/>
<path d="M24.564 31.9108C23.9435 31.9503 23.3231 31.8427 22.7564 31.5952C22.7564 31.5952 18.467 34.3209 17.6601 34.762C16.8531 35.1996 15.5728 35.7196 17.0145 35.9456C18.4563 36.1715 19.9339 36.0245 22.3368 33.9479C23.1258 33.3095 23.8826 32.6317 24.5963 31.9108" fill="#010101"/>
<path d="M39.7418 40.2206C40.581 40.2206 42.4675 41.4723 42.4352 41.6229C42.403 41.7699 41.7323 41.4472 41.5386 41.3718C41.345 41.2929 41.0616 41.2642 41.2804 41.5727C41.5279 41.9349 41.7 42.3438 41.7897 42.7741C41.7897 42.9212 41.6355 42.7741 41.6355 42.7741C41.4095 42.1501 40.9648 41.6265 40.3838 41.3073C40.0287 41.171 39.9175 41.2535 39.8996 41.5009C39.8817 41.7448 40.0108 42.2326 39.731 41.5404C39.4764 40.9917 39.0855 40.5147 38.6013 40.1524C38.4005 40.0233 38.4901 39.8799 38.4901 39.8799C38.6085 39.7902 38.7591 39.7543 38.9026 39.783C39.2146 39.844 39.5015 39.9875 39.7418 40.1955M38.1925 29.8558C37.3461 30.3077 36.2917 30.7739 36.2917 30.7739C36.0155 32.1762 35.9187 33.6108 36.0083 35.0382C36.1374 38.6103 36.5248 39.6073 37.6868 40.278C38.7842 40.8375 39.5159 41.9206 39.6235 43.1471C39.6235 43.6062 39.5661 43.721 39.7131 43.8823C39.8602 44.0437 39.8494 44.1477 39.6737 44.4562C39.4979 44.7646 39.0281 44.8507 39.2038 44.8758C39.6486 44.9547 40.0897 44.7072 40.2583 44.2876C40.5344 43.6421 40.8536 43.3121 40.3228 41.9636C40.3228 41.9636 40.9684 41.8596 41.1836 43.0216C41.3306 43.764 41.1011 44.0366 41.6928 44.2482C41.6928 44.2482 41.7825 44.5136 41.4454 44.8937C41.1082 45.2739 41.5494 45.1053 41.7825 44.9906C42.2451 44.7001 42.4998 44.1693 42.4281 43.6277C42.342 43.0001 42.1232 42.4011 41.7825 41.8704C42.0587 41.9564 42.2882 42.1465 42.4281 42.4011C42.6683 42.8279 42.6361 43.0467 43.2314 43.0467C43.4 43.2045 43.4968 43.4233 43.504 43.6528C43.504 44.0653 43.0126 44.3558 43.1812 44.2984C43.3498 44.241 44.4723 43.8465 43.6188 42.437C43.504 42.003 43.2171 41.6336 42.8226 41.4185C42.177 41.0777 41.3557 40.1273 39.8566 39.8619C39.5266 39.5212 39.2505 39.1339 39.0353 38.7107C39.0855 38.5959 39.1249 38.4812 39.1572 38.3628C39.1895 38.1942 38.1817 33.0513 40.6241 28.4463C40.6241 28.4463 38.9815 29.4039 38.1387 29.8486" fill="#010101"/>
<path d="M22.5878 43.6744L24.3918 44.4096C24.3452 45.0875 24.6572 45.7366 25.2131 46.1275C25.0912 46.4647 24.8652 46.7552 24.5676 46.956C24.4564 47.0385 24.3667 47.06 24.3918 47.0923C24.4169 47.1246 24.4887 47.0923 24.5604 47.0528C26.2783 46.4073 26.4469 44.797 26.368 43.6995C26.3249 43.0647 26.0344 42.473 25.561 42.0533C25.561 42.0533 28.4553 42.455 29.5097 42.2398C30.5641 42.0247 29.5097 41.9816 29.5097 41.9816C27.3184 41.9816 24.876 41.1245 23.6351 41.5297C22.5914 41.8991 21.8885 42.8818 21.8849 43.99C21.7163 45.0014 22.1144 46.0235 22.925 46.6512C22.9967 46.7085 23.0935 46.7946 23.1043 46.7803C23.1186 46.7659 23.0397 46.644 23.0075 46.5938C22.4659 45.7259 22.326 44.6679 22.6201 43.6852" fill="#010101"/>
<path d="M52.7714 45.9301C51.5699 45.9911 50.3649 45.9158 49.1777 45.7042L48.9195 45.8584C49.9201 46.2242 50.9817 46.4035 52.0469 46.3964C52.3876 46.4537 51.9823 46.5972 51.9823 46.5972C50.1604 48.0892 47.1299 47.6444 42.6719 47.6444C38.214 47.6444 33.5444 48.9356 32.013 49.1615C31.3675 49.2655 30.8833 48.7275 30.4493 48.5159C30.1194 48.3438 29.7787 48.1968 29.4272 48.0712C33.9784 47.085 38.6013 46.4753 43.2529 46.2493C46.6314 46.0162 49.4862 46.4932 49.8448 43.9432C49.9596 43.2762 49.8305 42.5876 49.4826 42.0066C49.0594 41.3251 48.4354 40.7907 47.7001 40.4751C47.5638 40.4393 47.4168 40.4393 47.2805 40.4751C46.0073 40.8732 44.6947 41.1386 43.3641 41.2642C43.0091 41.3108 43.2027 41.4112 43.2027 41.4112C44.5154 41.4973 45.828 41.3323 47.0797 40.927C47.1909 40.8912 47.3092 40.8912 47.4204 40.927C48.1951 41.1853 48.7976 41.8021 49.0415 42.5804C49.7731 44.5816 48.2094 45.0479 46.8717 45.1124C45.5339 45.177 39.8924 45.758 37.7549 45.8871C35.6174 46.0162 30.001 46.7837 27.9281 47.0885C26.3572 47.3288 24.3488 47.4687 24.3488 47.4687C23.8072 47.4687 24.6967 47.7269 26.8342 48.0425C28.9717 48.3581 29.542 49.2045 30.4206 49.7604C31.0052 49.9972 31.6472 50.0617 32.2677 49.9398C33.1535 49.8501 35.0328 49.2942 36.2343 49.1113C40.1901 48.498 44.1962 48.2792 48.1915 48.4657C51.2722 48.5626 52.3589 47.6767 53.399 46.3856C53.8903 45.7795 52.7534 45.966 52.7534 45.966" fill="#010101"/>
<path d="M70.6426 42.1281V32.7173H67.7878V42.2249C67.7878 46.9232 70.3019 49.5162 74.8603 49.5162C79.4186 49.5162 82.0475 46.8873 82.0475 42.103V32.7173H79.207V42.2501C79.207 45.2519 77.6434 46.9662 74.9177 46.9662C72.192 46.9662 70.6354 45.1981 70.6354 42.1245" fill="#010101"/>
<path d="M88.5892 32.7173V49.2364H91.3938V37.1035L100.629 49.2364H103.157V32.7173H100.36V44.4916L91.3938 32.7173H88.5892Z" fill="#010101"/>
<path d="M113.874 32.7139H111.026V49.2366H113.874V32.7139Z" fill="#010101"/>
<path d="M123.073 32.7173H119.917L126.595 49.2364H129.32L136.006 32.7173H132.939L128.008 46.0015L123.073 32.7173Z" fill="#010101"/>
<path d="M144.14 42.1281H152.406V39.6965H144.14V35.1381H153.529V32.7173H141.317V49.2364H153.651V46.812H144.14V42.1281Z" fill="#010101"/>
<path d="M170.091 42.9998C172.229 42.3255 173.638 40.2849 173.52 38.0433C173.584 36.6769 173.097 35.3427 172.168 34.3421C171.099 33.2805 169.453 32.7139 167.412 32.7139H159.902V49.2366H162.757V43.6238H166.541L170.288 49.2366H173.613L169.499 43.2257L170.091 42.9998ZM162.757 41.1994V35.1885H167.089C169.302 35.1885 170.618 36.3075 170.618 38.1904C170.618 40.0733 169.263 41.1994 167.186 41.1994H162.757Z" fill="#010101"/>
<path d="M186.47 39.7292C183.662 39.0119 182.317 38.5923 182.317 36.9461C182.317 35.8845 183.167 34.8552 185.068 34.8552C186.664 34.927 188.206 35.4613 189.497 36.3974L190.971 34.2957C189.279 33.0728 187.238 32.4308 185.154 32.4631C181.787 32.4631 179.523 34.3926 179.523 37.2474C179.523 40.2672 181.195 41.1997 184.943 42.1644C187.65 42.8566 188.859 43.4125 188.859 44.8758C188.859 45.9696 188.063 47.0886 185.832 47.0886C183.949 47.0527 182.134 46.3713 180.689 45.1591L179.043 47.1352C180.954 48.6666 183.332 49.4987 185.782 49.4879C189.44 49.4879 191.707 47.605 191.707 44.5637C191.707 41.9923 190.304 40.7047 186.524 39.7364" fill="#010101"/>
<path d="M200.755 32.7139H197.908V49.2366H200.755V32.7139Z" fill="#010101"/>
<path d="M212.44 49.2364H215.288V35.2601H220.624V32.7173H207.107V35.2601H212.44V49.2364Z" fill="#010101"/>
<path d="M237.814 32.7173L233.263 40.2237L228.801 32.7173H225.498L231.817 42.684V49.2364H234.669V42.6015L240.988 32.7173H237.814Z" fill="#010101"/>
<path d="M67.4399 0.862793V24.0994H83.1127L85.0242 19.4872H72.5578V0.862793H67.4399Z" fill="#ED1B2E"/>
<path d="M102.02 14.3768L98.9361 6.8381L95.8553 14.3768H102.02ZM96.6336 0.888184H101.346L111.309 24.1248H105.969L103.871 18.8957H94.0083L91.8887 24.0997H86.674L96.6336 0.888184Z" fill="#ED1B2E"/>
<path d="M127.262 5.57897H119.963V0.862793H139.667V5.57897H132.373V24.0994H127.262V5.57897Z" fill="#ED1B2E"/>
<path d="M155.401 12.1532C156.448 12.2249 157.485 11.9057 158.31 11.2602C158.991 10.6541 159.361 9.77898 159.321 8.86802V8.80705C159.382 7.86023 158.988 6.9421 158.252 6.33958C157.395 5.73706 156.355 5.44297 155.308 5.50752H150.229V12.1532H155.401ZM145.112 0.888184H155.735C158.683 0.888184 160.931 1.6772 162.517 3.24806C163.862 4.6683 164.572 6.57629 164.478 8.5309V8.59904C164.561 10.2488 164.084 11.8771 163.123 13.2184C162.201 14.4019 160.96 15.2985 159.547 15.8006L165.224 24.0997H159.246L154.246 16.6685H150.226V24.0997H145.115V0.888184H145.112Z" fill="#ED1B2E"/>
<path d="M180.449 19.7886C181.417 19.7994 182.378 19.6057 183.268 19.222C184.114 18.8669 184.871 18.3361 185.488 17.6619C186.101 16.9876 186.585 16.2022 186.912 15.3486C187.259 14.4592 187.432 13.5123 187.421 12.5548V12.483C187.428 11.5219 187.256 10.5643 186.912 9.66409C185.47 6.02385 181.353 4.2378 177.712 5.67955C177.659 5.70107 177.605 5.72259 177.555 5.74411C176.722 6.10634 175.977 6.63713 175.36 7.30421C174.75 7.97846 174.266 8.76031 173.936 9.61029C173.588 10.5069 173.412 11.4609 173.416 12.4221V12.483C173.409 13.4478 173.584 14.4054 173.936 15.3056C174.262 16.1699 174.757 16.9589 175.395 17.6224C176.701 19.0283 178.537 19.8137 180.456 19.785M180.388 24.5012C178.699 24.5156 177.02 24.1964 175.456 23.558C174.008 22.959 172.684 22.0911 171.562 21.0008C170.461 19.9285 169.593 18.641 169.008 17.2171C168.391 15.7431 168.079 14.1579 168.09 12.5619V12.4902C168.076 10.8907 168.395 9.30186 169.019 7.82783C170.242 4.91205 172.58 2.60597 175.51 1.42244C177.085 0.77688 178.77 0.4541 180.474 0.475619C182.163 0.457686 183.842 0.780466 185.405 1.42244C186.854 2.01779 188.174 2.88212 189.297 3.97599C190.39 5.05192 191.262 6.33587 191.854 7.7561C192.463 9.2373 192.775 10.8261 192.765 12.4292V12.4902C192.775 14.0898 192.46 15.6786 191.836 17.1526C191.23 18.5836 190.355 19.8819 189.257 20.9829C188.135 22.0947 186.804 22.9734 185.341 23.5651C183.777 24.2035 182.099 24.5227 180.409 24.5084" fill="#ED1B2E"/>
<path d="M209.764 19.6166C210.69 19.6632 211.611 19.448 212.422 18.9997C213.075 18.5945 213.455 17.8664 213.415 17.0989V17.0308C213.444 16.3027 213.107 15.6105 212.522 15.1802C211.658 14.653 210.647 14.4127 209.639 14.4952H203.725V19.6058L209.764 19.6166ZM208.409 10.2596C209.341 10.3062 210.266 10.1053 211.099 9.67856C211.751 9.2984 212.135 8.58469 212.092 7.82795V7.75981C212.131 7.06046 211.801 6.38979 211.228 5.99169C210.489 5.53622 209.628 5.32103 208.76 5.37483H203.718V10.3062L208.409 10.2596ZM198.711 0.888184H209.481C212.157 0.888184 214.176 1.57319 215.542 2.9468C216.582 3.98687 217.149 5.40352 217.113 6.87396V6.9421C217.12 7.53745 217.038 8.12922 216.858 8.69946C216.708 9.18722 216.485 9.65345 216.206 10.0802C215.94 10.4783 215.621 10.8406 215.262 11.1598C214.911 11.479 214.52 11.7551 214.104 11.9846C215.313 12.4043 216.403 13.1144 217.274 14.0576C218.096 15.0869 218.508 16.3816 218.433 17.6943V17.7624C218.458 18.7307 218.246 19.6847 217.816 20.5491C217.411 21.3524 216.808 22.0374 216.066 22.5467C215.227 23.0954 214.298 23.4864 213.319 23.698C212.153 23.9777 210.955 24.1068 209.757 24.0925H198.715V0.888184H198.711Z" fill="#ED1B2E"/>
<path d="M223.067 0.862793H240.558V5.41399H228.109V10.1302H237.208V14.6778H228.109V19.5625H240.723V24.0994H223.067V0.862793Z" fill="#ED1B2E"/>
</svg>
