<svg width="283" height="262" viewBox="0 0 283 262" fill="none" xmlns="http://www.w3.org/2000/svg">
<g clip-path="url(#clip0_823_15676)">
<path d="M0 187.457V225.4H25.5937L28.7156 217.869H8.35636V187.457H0Z" fill="#E9223C"/>
<path d="M47.6766 187.496H55.3695L71.6404 225.441H62.9214L59.4965 216.901H43.3875L39.9239 225.4H31.4056L47.6766 187.496ZM56.4773 209.522L51.441 197.212L46.4073 209.522H56.4773Z" fill="#E9223C"/>
<path d="M97.6989 195.157H85.7784V187.459H117.958V195.157H106.047V225.4H97.6989V195.157Z" fill="#E9223C"/>
<path d="M126.851 187.496H144.198C149.013 187.496 152.688 188.787 155.275 191.352C157.472 193.673 158.629 196.789 158.477 199.982V200.09C158.614 202.782 157.83 205.441 156.262 207.633C154.755 209.563 152.729 211.027 150.421 211.85L159.693 225.4H149.928L141.762 213.268H135.197V225.4H126.851V187.496ZM143.656 205.889C145.365 206.01 147.06 205.488 148.407 204.43C149.519 203.443 150.125 202.008 150.059 200.524V200.422C150.161 198.878 149.513 197.38 148.317 196.396C146.915 195.411 145.216 194.932 143.504 195.036H135.209V205.889H143.656Z" fill="#E9223C"/>
<path d="M184.46 226.053C181.7 226.079 178.963 225.555 176.404 224.514C174.04 223.537 171.878 222.119 170.044 220.336C168.244 218.582 166.823 216.48 165.874 214.154C164.868 211.747 164.356 209.162 164.373 206.552V206.433C164.352 203.82 164.868 201.228 165.894 198.823C167.892 194.062 171.71 190.298 176.496 188.362C179.068 187.31 181.825 186.781 184.603 186.814C187.363 186.783 190.104 187.31 192.656 188.362C195.021 189.334 197.179 190.748 199.011 192.531C200.798 194.291 202.219 196.387 203.189 198.702C204.188 201.12 204.694 203.715 204.678 206.333V206.433C204.696 209.047 204.18 211.639 203.158 214.044C202.17 216.38 200.743 218.504 198.95 220.297C197.119 222.111 194.945 223.545 192.556 224.514C189.999 225.553 187.26 226.077 184.501 226.053M184.56 218.363C186.143 218.379 187.711 218.062 189.162 217.437C190.542 216.858 191.777 215.99 192.79 214.889C193.791 213.786 194.579 212.507 195.115 211.115C195.68 209.663 195.965 208.114 195.949 206.552V206.433C195.961 204.861 195.678 203.3 195.115 201.834C192.761 195.888 186.034 192.973 180.087 195.325C180.001 195.36 179.913 195.393 179.829 195.432C178.47 196.021 177.25 196.889 176.245 197.978C175.248 199.079 174.46 200.356 173.919 201.742C173.35 203.204 173.061 204.761 173.073 206.333V206.433C173.063 208.012 173.35 209.573 173.919 211.043C174.451 212.455 175.262 213.741 176.306 214.83C178.439 217.122 181.44 218.406 184.571 218.363" fill="#E9223C"/>
<path d="M214.389 187.496H231.979C236.349 187.496 239.649 188.617 241.876 190.859C243.575 192.556 244.503 194.873 244.444 197.274V197.382C244.458 198.357 244.321 199.325 244.03 200.252C243.785 201.05 243.424 201.81 242.963 202.508C242.532 203.158 242.01 203.75 241.424 204.27C240.849 204.79 240.212 205.242 239.533 205.617C241.508 206.302 243.285 207.465 244.708 209C246.049 210.679 246.722 212.795 246.599 214.939V215.049C246.638 216.629 246.292 218.189 245.592 219.603C244.929 220.911 243.944 222.035 242.73 222.864C241.363 223.759 239.841 224.395 238.243 224.745C236.337 225.2 234.382 225.412 232.423 225.39H214.389V187.496ZM230.228 202.8C231.749 202.874 233.264 202.546 234.62 201.853C235.686 201.232 236.31 200.066 236.238 198.831V198.723C236.302 197.579 235.766 196.486 234.828 195.833C233.622 195.09 232.216 194.738 230.801 194.828H222.566V202.88L230.228 202.8ZM232.441 218.08C233.956 218.154 235.457 217.804 236.783 217.075C237.846 216.414 238.468 215.225 238.404 213.972V213.864C238.45 212.676 237.901 211.545 236.943 210.842C235.53 209.983 233.88 209.592 232.232 209.725H222.576V218.072L232.441 218.08Z" fill="#E9223C"/>
<path d="M254.164 187.457H282.73V194.887H262.399V202.587H277.26V210.016H262.399V217.99H283V225.4H254.164V187.457Z" fill="#E9223C"/>
<path d="M39.7971 253.088V241.734H36.3513V253.205C36.3513 258.874 39.3852 262 44.8843 262C50.385 262 53.5577 258.829 53.5577 253.055V241.734H50.1308V253.237C50.1308 256.859 48.2436 258.928 44.9556 258.928C41.666 258.928 39.7887 256.795 39.7887 253.088" fill="black"/>
<path d="M61.454 241.734V261.666H64.8358V247.031L75.9824 261.666H79.0309V241.734H75.6569V255.941L64.8358 241.734H61.454Z" fill="black"/>
<path d="M88.5276 241.734H91.9629V261.666H88.5276V241.734Z" fill="black"/>
<path d="M103.062 241.734H99.2549L107.315 261.666H110.604L118.67 241.734H114.971L109.019 257.765L103.062 241.734Z" fill="black"/>
<path d="M128.482 253.088H138.458V250.157H128.482V244.657H139.815V241.734H125.078V261.666H139.962V258.743H128.482V253.088Z" fill="black"/>
<path d="M150.947 251.972V244.72H156.174C158.844 244.72 160.434 246.069 160.434 248.341C160.434 250.613 158.799 251.972 156.293 251.972H150.947ZM159.798 254.142C162.379 253.327 164.08 250.867 163.933 248.163C164.013 246.515 163.425 244.907 162.303 243.697C161.015 242.418 159.03 241.734 156.563 241.734H147.504V261.666H150.947V254.895H155.515L160.039 261.666H164.049L159.085 254.414L159.798 254.142Z" fill="black"/>
<path d="M179.563 250.196C176.173 249.328 174.551 248.824 174.551 246.839C174.551 245.557 175.577 244.315 177.872 244.315C179.796 244.401 181.655 245.048 183.215 246.178L184.992 243.642C182.951 242.17 180.488 241.394 177.974 241.431C173.909 241.431 171.178 243.76 171.178 247.201C171.178 250.847 173.196 251.97 177.716 253.135C180.984 253.972 182.441 254.639 182.441 256.408C182.441 257.726 181.479 259.075 178.787 259.075C176.514 259.03 174.324 258.209 172.582 256.748L170.597 259.13C172.901 260.981 175.77 261.982 178.725 261.969C183.139 261.969 185.879 259.697 185.879 256.027C185.879 252.926 184.185 251.373 179.624 250.202" fill="black"/>
<path d="M193.363 241.734H196.8V261.666H193.363V241.734Z" fill="black"/>
<path d="M210.903 261.666H214.338V244.806H220.777V241.734H204.463V244.806H210.903V261.666Z" fill="black"/>
<path d="M241.518 241.734L236.026 250.793L230.644 241.734H226.656L234.282 253.763V261.666H237.725V253.661L245.351 241.734H241.518Z" fill="black"/>
<path d="M222.25 42.2721C221.738 43.2033 220.996 43.9893 220.093 44.5583C223.481 44.5583 222.25 42.2721 222.25 42.2721Z" fill="black"/>
<path d="M231.618 45.2275C231.143 40.5875 228.662 40.2212 226.222 39.2282C223.784 38.2358 219.403 37.0709 217.785 36.013C216.152 35.1573 214.373 34.615 212.541 34.4164C210.598 34.1151 205.699 34.4164 203.453 34.0721C201.21 33.7262 197.758 33.0571 196.98 33.5544C195.723 36.0355 193.418 37.8182 190.7 38.4098C187.313 39.4656 183.017 40.5671 179.909 41.4511C179.909 39.8324 180.083 34.977 184.224 27.8784C189.406 19.2487 190.851 16.3116 188.54 14.0459C186.232 11.7817 175.808 16.9829 175.808 16.9829C175.968 16.156 176.077 15.3187 176.132 14.4797C179.133 12.7091 190.505 6.38812 195.144 8.97773C200.52 11.9761 193.938 20.305 193.334 21.0827C192.728 21.8587 185.412 32.7993 183.944 37.2428L187.011 36.4018C187.011 36.4018 193.807 25.4837 196.161 22.5912C198.511 19.7014 203.951 11.3928 199.593 7.72485C195.232 4.05685 188.196 5.56754 176.218 13.2043C176.349 9.23554 175.571 3.28133 170.091 1.20786C161.112 -2.22067 130.574 0.21488 95.828 27.9009C86.4004 34.791 77.5713 42.4645 69.4335 50.8364C57.155 63.5675 45.6945 76.7293 49.3652 78.7578C53.378 80.9151 63.7814 69.2645 65.0098 67.9686C65.0098 67.9686 75.9315 68.6398 89.592 56.9442C95.0602 59.9142 101.476 60.6205 107.462 58.9071C107.462 58.9071 103.362 69.092 115.509 68.2489C115.509 68.2489 114.476 73.2128 118.596 72.3712C118.596 72.3712 94.5749 86.4396 94.9884 87.0003C95.3956 87.5615 107.288 82.3194 113.114 79.3635C116.611 77.5929 118.705 75.8899 121.509 75.4356C130.912 74.4143 140.004 71.4747 148.227 66.8058C162.193 59.167 166.66 49.3053 167.306 42.2292C167.306 42.2292 163.744 45.4429 162.86 45.3344C161.976 45.2275 163.419 41.5805 163.787 39.2282C164.156 36.8765 166.961 27.727 164.349 28.8284C161.738 29.9293 153.56 38.0865 150.471 32.8627C148.315 29.0003 154.336 21.7502 154.336 21.7502C154.336 21.7502 135.453 32.2381 131.977 26.843C128.891 22.0531 134.134 18.2111 134.134 18.2111C119.346 24.4174 105.206 32.0725 91.9215 41.0622C70.5781 55.4969 57.7157 73.2353 53.552 73.9249C49.3856 74.615 87.066 29.6715 127.704 13.5072C149.632 4.74695 164.394 3.60464 170.285 6.36559C173.737 7.96222 173.327 12.3858 173.327 13.4642C173.327 13.4642 170.263 42.487 175.485 49.7575C175.485 49.7575 179.8 47.3199 183.536 45.7232C183.536 45.7232 181.809 45.7232 182.672 44.147C183.125 43.2851 184.528 42.8328 186.534 42.2067C189.256 41.3426 193.938 40.9763 196.44 39.1627C198.943 37.3513 198.599 36.6187 199.916 36.187C202.464 36.6475 205.052 36.8498 207.642 36.7906C209.855 36.4039 212.117 36.4039 214.332 36.7906C217.653 38.371 221.085 39.7051 224.607 40.7819C227.841 41.3856 228.208 41.6235 229.287 43.5229C230.058 44.9226 230.502 46.4783 230.582 48.0749H230.453C228.253 47.2973 225.921 46.9614 223.589 47.0841C224.819 47.2135 226.05 47.7291 224.238 48.1609C222.424 48.5927 217.073 50.3182 217.073 50.3182C218.377 48.9144 219.976 47.8171 221.755 47.105H215.282C216.576 45.8809 217.434 44.266 217.718 42.5095C218.297 42.4131 218.871 42.2701 219.423 42.0778C221.194 41.4736 219.229 40.9988 215.411 40.8474C213.116 40.7552 210.831 40.5178 208.569 40.1353L207.599 41.8179C208.698 41.3693 209.892 41.1974 211.073 41.3222C211.077 42.6526 212.08 43.7661 213.402 43.9097C214.066 43.9956 214.739 43.8892 215.345 43.6089C214.635 45.7683 212.369 47.0044 210.166 46.4353C208.772 46.0586 207.588 45.1316 206.885 43.8667C206.885 43.8667 204.6 48.5722 202.44 49.7145C200.282 50.859 189.06 55.9942 184.442 61.6685C179.821 67.3445 177.966 69.2645 174.429 70.2999C170.889 71.3358 170.457 71.3584 170.003 71.8535C169.55 72.3487 165.687 78.326 153.666 84.8C149.803 86.9573 148.207 86.808 147.559 86.1592C146.479 85.0803 147.861 83.3527 147.107 83.3978C145.332 83.6682 143.623 84.2535 142.055 85.1233C138.106 86.808 135.582 88.2327 132.603 88.4905C129.624 88.7483 127.12 87.8643 126.926 83.764C126.926 83.764 126.797 83.764 124.768 84.3907C122.74 85.0148 111.454 90.302 107.353 90.345C105.196 90.345 109.208 85.2522 109.208 85.2522C109.208 85.2522 98.4174 91.7268 96.1309 92.7417C93.8417 93.7552 87.1949 96.5591 89.8273 89.6983C77.7045 96.7765 64.7887 102.403 51.3488 106.464C43.9033 108.75 42.112 107.76 42.1759 109.592C42.1759 110.456 43.0191 110.779 44.1412 110.844C46.5236 110.998 48.9171 110.92 51.2854 110.607C58.4589 109.502 65.5417 107.872 72.4779 105.731C83.1171 102.322 86.2877 98.674 93.6698 100.725C103.058 103.314 107.72 99.4311 107.72 99.4311C107.72 99.4311 109.145 101.975 114.928 101.869C114.928 101.869 120.216 105.883 129.862 104.35C132.837 105.682 136.077 106.323 139.336 106.227C139.858 108.978 140.083 111.778 140.005 114.578C139.659 119.259 140.005 120.575 142.616 118.268C143.815 121.568 144.81 124.942 145.594 128.366C145.769 130.394 145.725 131.645 146.802 131.774C147.404 131.856 148.014 131.856 148.616 131.774C149.281 133.086 150.504 134.027 151.941 134.343C151.941 134.343 152.176 135.12 148.121 136.717C146.092 137.515 144.235 139.413 144.947 140.342H148.444C149.873 139.034 151.969 138.758 153.689 139.648C154.737 140.123 155.314 141.267 155.069 142.391C154.97 142.763 154.803 143.115 154.571 143.427C154.442 143.642 154.141 144.03 153.795 144.614C153.451 145.197 152.759 146.577 152.954 146.966C153.149 147.352 154.722 149.575 150.794 150.071C150.794 150.071 150.988 150.851 152.198 150.785C153.409 150.72 156.514 148.8 156.514 147.827C157.505 146.65 158.305 145.326 158.889 143.899C159.795 141.591 159.904 141.247 160.207 141.591C161.04 143.072 161.227 144.825 160.723 146.448C160.096 147.979 159.558 148.282 160.055 148.951C160.317 149.182 160.598 149.391 160.895 149.575C161.218 149.813 161.263 150.396 160.313 151.325C158.674 152.985 163.138 151.023 163.767 149.469C163.767 149.469 165.192 147.827 164.609 141.634C164.609 141.634 164.609 140.968 165.321 141.462C166.443 142.08 167.233 143.163 167.476 144.419C167.476 145.561 166.983 146.577 167.759 146.966C168.535 147.352 168.58 148.56 168.277 149.317C167.974 150.071 166.25 150.288 166.66 150.417C168.682 150.646 170.51 149.189 170.738 147.162C170.748 147.07 170.756 146.974 170.76 146.88C171.317 142.634 169.221 138.481 165.47 136.414C161.153 133.802 159.816 132.509 159.149 116.864C159.222 111.422 160.066 106.018 161.652 100.811C163.075 95.6321 164.801 92.7417 164.889 93.3234C165.063 94.3588 163.658 98.2846 163.55 100.25C169.186 97.3618 174.629 94.1115 179.843 90.5189C181.966 88.7934 183.893 86.841 185.586 84.6936C185.735 84.4971 188.845 81.4574 190.073 73.2783L194.863 63.8914C194.863 63.8914 196.763 67.0411 198.36 65.1437C199.959 63.2442 203.279 57.8077 203.799 57.7422C203.799 57.7422 204.577 60.2029 205.722 59.4882C206.864 58.7782 207.318 56.1456 210.254 54.7418C212.874 53.6058 215.564 52.6254 218.301 51.8084C218.301 51.8084 229.89 48.939 230.302 49.8026C230.578 50.7421 230.721 51.7141 230.734 52.6929C231.923 50.4597 232.363 47.901 231.985 45.3999M160.68 134.126C161.118 134.996 161.773 135.739 162.58 136.285C164.166 137.096 165.665 138.072 167.047 139.196C167.476 139.63 167.931 140.297 167.693 140.471C167.458 140.643 166.854 140.471 165.536 139.241C164.22 138.011 163.529 138.743 163.378 139.499C163.448 140.88 163.448 142.262 163.378 143.642C163.161 145.023 162.473 145.218 162.537 143.642C162.602 142.065 161.738 138.551 160.207 138.68C159.198 138.876 158.37 139.601 158.047 140.577C157.681 141.333 157.118 142.065 157.29 141.439C157.343 140.297 157.112 139.154 156.624 138.119C155.804 136.348 155.544 136.156 154.593 135.962C153.644 135.767 153.56 135.01 155.198 134.3C156.795 133.395 158.723 133.301 160.401 134.042" fill="black"/>
<path d="M93.6698 103.163C90.5175 101.977 85.9439 103.163 81.4343 105.148C76.9241 107.133 55.2327 114.469 42.8451 113.78C42.8451 113.78 44.6794 116.584 52.2559 117.792C52.2559 117.792 51.6297 122.108 59.0956 120.403C66.5637 118.698 93.3261 106.767 98.9578 103.572C97.2016 104.061 95.3301 103.916 93.6698 103.163Z" fill="black"/>
<path d="M112.942 104.155C110.52 104.301 108.131 103.531 106.252 101.998L79.7064 115.72C79.7064 115.72 67.5767 121.374 69.9314 122.821C69.9314 122.821 73.7063 124.978 82.1874 121.676C90.669 118.375 114.562 105.127 114.562 105.127C114.562 105.127 113.157 104.155 113.071 104.155" fill="black"/>
<path d="M124.208 106.593C122.138 106.73 120.066 106.366 118.165 105.537C118.165 105.537 103.834 114.641 101.138 116.111C98.44 117.577 94.1677 119.302 98.9803 120.057C103.791 120.813 108.733 120.315 116.762 113.391C119.403 111.264 121.923 108.994 124.316 106.593" fill="black"/>
<path d="M169.724 99.7319C166.897 101.243 163.378 102.796 163.378 102.796C162.455 107.483 162.138 112.269 162.428 117.036C162.86 128.969 164.156 132.292 168.04 134.535C171.704 136.402 174.148 140.023 174.515 144.118C174.515 145.647 174.32 146.038 174.815 146.577C175.313 147.117 175.27 147.461 174.684 148.497C174.103 149.532 172.529 149.813 173.11 149.899C174.601 150.161 176.068 149.34 176.629 147.934C177.557 145.778 178.613 144.679 176.844 140.168C176.844 140.168 179.002 139.824 179.717 143.705C180.212 146.19 179.434 147.095 181.42 147.805C181.42 147.805 181.721 148.691 180.599 149.964C179.477 151.237 180.945 150.677 181.721 150.288C183.27 149.324 184.112 147.545 183.88 145.735C183.592 143.646 182.857 141.643 181.721 139.867C182.642 140.158 183.415 140.79 183.88 141.634C184.679 143.06 184.573 143.793 186.558 143.793C187.121 144.317 187.447 145.049 187.463 145.821C187.463 147.203 185.823 148.173 186.384 147.979C186.945 147.784 190.7 146.47 187.85 141.762C187.469 140.315 186.509 139.083 185.197 138.356C183.039 137.212 180.298 134.042 175.291 133.155C174.185 132.021 173.262 130.728 172.549 129.315C172.717 128.936 172.854 128.548 172.959 128.149C173.067 127.588 169.701 110.413 177.86 95.0284C177.86 95.0284 172.377 98.2212 169.552 99.7093M174.901 134.343C177.708 134.343 184.011 138.528 183.903 139.026C183.794 139.519 181.549 138.44 180.902 138.182C180.255 137.925 179.305 137.818 180.038 138.852C180.861 140.068 181.44 141.429 181.743 142.866C181.743 143.361 181.225 142.866 181.225 142.866C180.474 140.776 178.985 139.034 177.039 137.968C175.854 137.515 175.485 137.796 175.42 138.614C175.356 139.433 175.788 141.052 174.858 138.743C174.005 136.907 172.707 135.313 171.081 134.105C170.414 133.673 170.715 133.196 170.715 133.196C171.106 132.895 171.612 132.779 172.097 132.875C173.137 133.082 174.103 133.559 174.901 134.255" fill="black"/>
<path d="M117.603 145.887L123.624 148.347C123.471 150.607 124.511 152.785 126.365 154.087C125.954 155.212 125.2 156.177 124.208 156.848C123.841 157.128 123.538 157.194 123.624 157.3C123.712 157.409 123.95 157.3 124.185 157.171C129.927 155.014 130.488 149.641 130.228 145.973C130.089 143.854 129.121 141.875 127.532 140.471C127.532 140.471 137.199 141.807 140.718 141.097C144.235 140.383 140.718 140.231 140.718 140.231C133.401 140.231 125.243 137.364 121.1 138.723C117.607 139.953 115.267 143.244 115.251 146.943C114.69 150.32 116.023 153.733 118.727 155.833C118.965 156.027 119.288 156.31 119.331 156.267C119.374 156.222 119.114 155.812 119.006 155.638C117.198 152.74 116.725 149.201 117.712 145.93" fill="black"/>
<path d="M218.432 153.417C214.414 153.62 210.391 153.366 206.432 152.662L205.57 153.18C208.915 154.396 212.453 155.002 216.015 154.971C217.159 155.165 215.8 155.64 215.8 155.64C209.713 160.624 199.593 159.136 184.701 159.136C169.81 159.136 154.205 163.449 149.091 164.206C146.933 164.55 145.314 162.759 143.869 162.047C142.767 161.474 141.627 160.976 140.458 160.559C155.662 157.268 171.106 155.233 186.642 154.474C197.93 153.698 207.47 155.294 208.655 146.771C209.036 144.538 208.608 142.241 207.447 140.297C206.029 138.025 203.951 136.242 201.49 135.181C201.032 135.067 200.548 135.067 200.088 135.181C195.832 136.512 191.449 137.396 187.011 137.818C185.823 137.968 186.47 138.311 186.47 138.311C190.849 138.594 195.242 138.043 199.419 136.694C199.791 136.578 200.19 136.578 200.563 136.694C203.15 137.56 205.165 139.615 205.977 142.219C208.418 148.908 203.196 150.46 198.728 150.677C194.262 150.894 175.42 152.836 168.277 153.266C161.132 153.698 142.38 156.265 135.451 157.278C130.208 158.078 123.497 158.553 123.497 158.553C121.684 158.553 124.66 159.416 131.805 160.473C138.947 161.531 140.847 164.356 143.781 166.212C145.738 167.005 147.883 167.213 149.955 166.816C152.911 166.515 159.192 164.659 163.206 164.055C176.414 162.002 189.799 161.279 203.153 161.896C213.447 162.221 217.071 159.265 220.547 154.948C222.187 152.92 218.39 153.546 218.39 153.546" fill="black"/>
</g>
<defs>
<clipPath id="clip0_823_15676">
<rect width="283" height="262" fill="white"/>
</clipPath>
</defs>
</svg>
