<svg width="675" height="140" viewBox="0 0 675 140" fill="none" xmlns="http://www.w3.org/2000/svg">
<g clip-path="url(#clip0_6031_130)">
<path d="M150.89 35.17C150.46 35.95 149.84 36.61 149.09 37.08C151.92 37.08 150.89 35.17 150.89 35.17Z" fill="#010101"/>
<path d="M99.5 111.85C99.87 112.58 100.41 113.2 101.09 113.65C102.41 114.33 103.66 115.14 104.82 116.08C105.18 116.44 105.56 117 105.36 117.14C105.16 117.28 104.66 117.14 103.56 116.11C102.46 115.08 101.89 115.69 101.76 116.33C101.82 117.48 101.82 118.64 101.76 119.79C101.58 120.94 101 121.11 101.06 119.79C101.11 118.47 100.39 115.54 99.12 115.65C98.28 115.81 97.59 116.42 97.32 117.23C97.02 117.86 96.55 118.47 96.69 117.95C96.73 117 96.54 116.04 96.13 115.18C95.44 113.7 95.23 113.54 94.44 113.38C93.65 113.22 93.58 112.59 94.94 111.99C96.27 111.24 97.88 111.16 99.28 111.77M158.71 37.64C158.31 33.77 156.24 33.46 154.21 32.63C152.17 31.8 148.52 30.83 147.17 29.95C145.81 29.24 144.32 28.78 142.79 28.62C141.17 28.37 137.08 28.62 135.21 28.33C133.34 28.04 130.45 27.48 129.81 27.9C128.76 29.97 126.84 31.46 124.57 31.95C121.74 32.83 118.16 33.75 115.56 34.49C115.56 33.14 115.71 29.09 119.16 23.16C123.48 15.96 124.69 13.5 122.76 11.61C120.83 9.71997 112.13 14.06 112.13 14.06C112.26 13.37 112.35 12.67 112.4 11.97C114.9 10.49 124.4 5.21997 128.27 7.37997C132.76 9.87997 127.26 16.84 126.76 17.49C126.26 18.14 120.15 27.27 118.92 30.98L121.48 30.28C121.48 30.28 127.15 21.16 129.12 18.75C131.08 16.34 135.62 9.39997 131.98 6.33997C128.34 3.27997 122.47 4.53997 112.47 10.92C112.58 7.60997 111.93 2.62997 107.35 0.899971C99.86 -1.96003 74.37 0.0699711 45.36 23.18C37.49 28.93 30.12 35.34 23.33 42.33C13.08 52.95 3.52 63.94 6.58 65.63C9.93 67.43 18.61 57.7 19.64 56.62C19.64 56.62 28.76 57.18 40.16 47.42C44.72 49.9 50.08 50.49 55.08 49.06C55.08 49.06 51.66 57.56 61.8 56.86C61.8 56.86 60.94 61 64.38 60.3C64.38 60.3 44.33 72.04 44.67 72.51C45.01 72.98 54.94 68.6 59.8 66.13C62.72 64.65 64.47 63.23 66.81 62.85C74.66 62 82.25 59.54 89.11 55.65C100.77 49.27 104.5 41.04 105.04 35.13C105.04 35.13 102.07 37.81 101.33 37.72C100.59 37.63 101.8 34.59 102.1 32.62C102.41 30.66 104.75 23.02 102.57 23.94C100.39 24.86 93.56 31.67 90.99 27.31C89.19 24.09 94.22 18.03 94.22 18.03C94.22 18.03 78.46 26.79 75.56 22.28C72.98 18.28 77.36 15.07 77.36 15.07C64.99 20.26 53.19 26.65 42.1 34.16C24.29 46.21 13.55 61.02 10.08 61.6C6.6 62.18 38.06 24.65 71.98 11.16C90.28 3.84997 102.6 2.88997 107.52 5.19997C110.4 6.52997 110.06 10.23 110.06 11.13C110.06 11.13 107.5 35.36 111.86 41.43C111.86 41.43 115.46 39.39 118.58 38.06C118.58 38.06 117.14 38.06 117.86 36.74C118.24 36.02 119.41 35.64 121.08 35.12C123.35 34.4 127.26 34.09 129.35 32.58C131.44 31.07 131.15 30.46 132.25 30.09C134.38 30.47 136.54 30.64 138.7 30.59C140.55 30.27 142.44 30.27 144.28 30.59C147.05 31.91 149.92 33.02 152.86 33.92C155.56 34.42 155.87 34.62 156.77 36.21C157.41 37.38 157.78 38.68 157.85 40.01H157.74C155.9 39.36 153.96 39.08 152.01 39.18C153.04 39.29 154.06 39.72 152.55 40.08C151.04 40.44 146.57 41.88 146.57 41.88C147.66 40.71 148.99 39.79 150.48 39.2H145.08C146.16 38.18 146.88 36.83 147.11 35.36C147.59 35.28 148.07 35.16 148.53 35C150.01 34.5 148.37 34.1 145.18 33.97C143.26 33.89 141.36 33.69 139.47 33.37L138.66 34.78C139.58 34.4 140.57 34.26 141.56 34.37C141.56 35.48 142.4 36.41 143.5 36.53C144.05 36.6 144.62 36.51 145.12 36.28C144.53 38.08 142.63 39.11 140.8 38.64C139.64 38.32 138.65 37.55 138.06 36.5C138.06 36.5 136.15 40.43 134.35 41.38C132.55 42.34 123.18 46.62 119.33 51.36C115.47 56.1 113.93 57.7 110.97 58.57C108.02 59.43 107.66 59.45 107.28 59.87C106.9 60.28 103.68 65.27 93.64 70.68C90.42 72.48 89.08 72.36 88.54 71.81C87.64 70.91 88.79 69.47 88.16 69.5C86.68 69.73 85.25 70.21 83.94 70.94C80.64 72.35 78.54 73.53 76.05 73.75C73.56 73.97 71.47 73.23 71.31 69.8C71.31 69.8 71.2 69.8 69.51 70.32C67.82 70.84 58.4 75.26 54.97 75.29C53.17 75.29 56.52 71.04 56.52 71.04C56.52 71.04 47.51 76.44 45.6 77.29C43.69 78.14 38.14 80.48 40.34 74.75C30.22 80.66 19.44 85.36 8.22 88.75C2.01 90.66 0.509996 89.83 0.559996 91.36C0.559996 92.08 1.26 92.35 2.2 92.41C4.19 92.54 6.19 92.47 8.16 92.21C14.15 91.29 20.06 89.93 25.85 88.14C34.73 85.29 37.38 82.25 43.54 83.96C51.38 86.12 55.27 82.88 55.27 82.88C55.27 82.88 56.46 85 61.29 84.92C61.29 84.92 65.7 88.27 73.76 86.99C76.24 88.1 78.95 88.64 81.67 88.56C82.11 90.86 82.29 93.19 82.23 95.53C81.94 99.44 82.23 100.54 84.41 98.61C85.41 101.37 86.24 104.18 86.9 107.04C87.05 108.73 87.01 109.78 87.91 109.88C88.41 109.95 88.92 109.95 89.42 109.88C89.98 110.98 90.99 111.76 92.19 112.02C92.19 112.02 92.39 112.67 89 114C87.31 114.67 85.76 116.25 86.35 117.03H89.27C90.46 115.94 92.21 115.71 93.65 116.45C94.53 116.85 95.01 117.8 94.8 118.74C94.72 119.05 94.58 119.35 94.38 119.61C94.27 119.79 94.02 120.11 93.73 120.6C93.44 121.09 92.87 122.24 93.03 122.56C93.19 122.88 94.51 124.74 91.23 125.15C91.23 125.15 91.39 125.8 92.4 125.75C93.41 125.7 96 124.09 96 123.28C96.83 122.3 97.5 121.19 97.98 120C98.74 118.07 98.83 117.78 99.08 118.07C99.77 119.31 99.93 120.77 99.51 122.12C98.99 123.4 98.54 123.65 98.95 124.21C99.17 124.4 99.4 124.58 99.65 124.73C99.92 124.93 99.96 125.42 99.16 126.19C97.79 127.58 101.52 125.94 102.04 124.64C102.04 124.64 103.23 123.27 102.74 118.1C102.74 118.1 102.74 117.54 103.34 117.96C104.28 118.48 104.94 119.38 105.14 120.43C105.14 121.38 104.73 122.23 105.38 122.55C106.03 122.87 106.06 123.88 105.81 124.51C105.56 125.14 104.12 125.32 104.46 125.43C106.15 125.62 107.67 124.4 107.86 122.71C107.87 122.63 107.88 122.55 107.88 122.47C108.35 118.93 106.6 115.46 103.47 113.73C99.87 111.55 98.75 110.47 98.19 97.41C98.25 92.87 98.96 88.35 100.28 84.01C101.47 79.69 102.91 77.27 102.98 77.76C103.13 78.63 101.95 81.9 101.86 83.54C106.56 81.13 111.11 78.41 115.46 75.42C117.23 73.98 118.84 72.35 120.25 70.56C120.38 70.4 122.97 67.86 124 61.03L128 53.19C128 53.19 129.59 55.82 130.92 54.24C132.25 52.65 135.03 48.11 135.46 48.06C135.46 48.06 136.11 50.11 137.06 49.52C138.01 48.93 138.39 46.73 140.84 45.56C143.03 44.61 145.27 43.79 147.56 43.11C147.56 43.11 157.23 40.71 157.58 41.44C157.81 42.22 157.93 43.04 157.94 43.85C158.93 41.98 159.3 39.85 158.99 37.76" fill="#010101"/>
<path d="M43.56 86.01C40.93 85.02 37.11 86.01 33.35 87.67C29.59 89.33 11.48 95.45 1.14 94.88C1.14 94.88 2.67 97.22 8.99 98.23C8.99 98.23 8.47 101.83 14.7 100.41C20.93 98.99 43.27 89.03 47.97 86.36C46.51 86.75 44.95 86.63 43.56 86.01Z" fill="#010101"/>
<path d="M59.65 86.83C57.63 86.95 55.63 86.31 54.07 85.03L31.91 96.49C31.91 96.49 21.79 101.21 23.75 102.42C23.75 102.42 26.9 104.22 33.98 101.47C41.06 98.7 61 87.64 61 87.64C61 87.64 59.83 86.83 59.76 86.83" fill="#010101"/>
<path d="M69.05 88.87C67.32 88.98 65.59 88.68 64.01 87.99C64.01 87.99 52.05 95.59 49.8 96.82C47.55 98.04 43.98 99.49 48 100.12C52.02 100.75 56.14 100.34 62.84 94.55C65.04 92.77 67.15 90.88 69.14 88.87" fill="#010101"/>
<path d="M111.37 112.04C113.71 112.04 118.97 115.53 118.88 115.95C118.79 116.36 116.92 115.46 116.38 115.25C115.84 115.03 115.05 114.95 115.66 115.81C116.35 116.82 116.83 117.96 117.08 119.16C117.08 119.57 116.65 119.16 116.65 119.16C116.02 117.42 114.78 115.96 113.16 115.07C112.17 114.69 111.86 114.92 111.81 115.61C111.76 116.29 112.12 117.65 111.34 115.72C110.63 114.19 109.54 112.86 108.19 111.85C107.63 111.49 107.88 111.09 107.88 111.09C108.21 110.84 108.63 110.74 109.03 110.82C109.9 110.99 110.7 111.39 111.37 111.97M107.05 83.14C104.69 84.4 101.75 85.7 101.75 85.7C100.98 89.61 100.71 93.61 100.96 97.59C101.32 107.55 102.4 110.33 105.64 112.2C108.7 113.76 110.74 116.78 111.04 120.2C111.04 121.48 110.88 121.8 111.29 122.25C111.7 122.7 111.67 122.99 111.18 123.85C110.69 124.71 109.38 124.95 109.87 125.02C111.11 125.24 112.34 124.55 112.81 123.38C113.58 121.58 114.47 120.66 112.99 116.9C112.99 116.9 114.79 116.61 115.39 119.85C115.8 121.92 115.16 122.68 116.81 123.27C116.81 123.27 117.06 124.01 116.12 125.07C115.18 126.13 116.41 125.66 117.06 125.34C118.35 124.53 119.06 123.05 118.86 121.54C118.62 119.79 118.01 118.12 117.06 116.64C117.83 116.88 118.47 117.41 118.86 118.12C119.53 119.31 119.44 119.92 121.1 119.92C121.57 120.36 121.84 120.97 121.86 121.61C121.86 122.76 120.49 123.57 120.96 123.41C121.43 123.25 124.56 122.15 122.18 118.22C121.86 117.01 121.06 115.98 119.96 115.38C118.16 114.43 115.87 111.78 111.69 111.04C110.77 110.09 110 109.01 109.4 107.83C109.54 107.51 109.65 107.19 109.74 106.86C109.83 106.39 107.02 92.05 113.83 79.21C113.83 79.21 109.25 81.88 106.9 83.12" fill="#010101"/>
<path d="M63.54 121.67L68.57 123.72C68.44 125.61 69.31 127.42 70.86 128.51C70.52 129.45 69.89 130.26 69.06 130.82C68.75 131.05 68.5 131.11 68.57 131.2C68.64 131.29 68.84 131.2 69.04 131.09C73.83 129.29 74.3 124.8 74.08 121.74C73.96 119.97 73.15 118.32 71.83 117.15C71.83 117.15 79.9 118.27 82.84 117.67C85.78 117.07 82.84 116.95 82.84 116.95C76.73 116.95 69.92 114.56 66.46 115.69C63.55 116.72 61.59 119.46 61.58 122.55C61.11 125.37 62.22 128.22 64.48 129.97C64.68 130.13 64.95 130.37 64.98 130.33C65.02 130.29 64.8 129.95 64.71 129.81C63.2 127.39 62.81 124.44 63.63 121.7" fill="#010101"/>
<path d="M147.7 127.96C144.35 128.13 140.99 127.92 137.68 127.33L136.96 127.76C139.75 128.78 142.71 129.28 145.68 129.26C146.63 129.42 145.5 129.82 145.5 129.82C140.42 133.98 131.97 132.74 119.54 132.74C107.11 132.74 94.09 136.34 89.82 136.97C88.02 137.26 86.67 135.76 85.46 135.17C84.54 134.69 83.59 134.28 82.61 133.93C95.3 131.18 108.19 129.48 121.16 128.85C130.58 128.2 138.54 129.53 139.54 122.42C139.86 120.56 139.5 118.64 138.53 117.02C137.35 115.12 135.61 113.63 133.56 112.75C133.18 112.65 132.77 112.65 132.39 112.75C128.84 113.86 125.18 114.6 121.47 114.95C120.48 115.08 121.02 115.36 121.02 115.36C124.68 115.6 128.34 115.14 131.83 114.01C132.14 113.91 132.47 113.91 132.78 114.01C134.94 114.73 136.62 116.45 137.3 118.62C139.34 124.2 134.98 125.5 131.25 125.68C127.52 125.86 111.79 127.48 105.83 127.84C99.87 128.2 84.21 130.34 78.43 131.19C74.05 131.86 68.45 132.25 68.45 132.25C66.94 132.25 69.42 132.97 75.38 133.85C81.34 134.73 82.93 137.09 85.38 138.64C87.01 139.3 88.8 139.48 90.53 139.14C93 138.89 98.24 137.34 101.59 136.83C112.62 135.12 123.79 134.51 134.93 135.03C143.52 135.3 146.55 132.83 149.45 129.23C150.82 127.54 147.65 128.06 147.65 128.06" fill="#010101"/>
<path d="M197.53 117.36V91.12H189.57V117.63C189.57 130.73 196.58 137.96 209.29 137.96C222 137.96 229.33 130.63 229.33 117.29V91.12H221.41V117.7C221.41 126.07 217.05 130.85 209.45 130.85C201.85 130.85 197.51 125.92 197.51 117.35" fill="#010101"/>
<path d="M247.57 91.12V137.18H255.39V103.35L281.14 137.18H288.19V91.12H280.39V123.95L255.39 91.12H247.57Z" fill="#010101"/>
<path d="M318.07 91.11H310.13V137.18H318.07V91.11Z" fill="#010101"/>
<path d="M343.72 91.12H334.92L353.54 137.18H361.14L379.78 91.12H371.23L357.48 128.16L343.72 91.12Z" fill="#010101"/>
<path d="M402.46 117.36H425.51V110.58H402.46V97.87H428.64V91.12H394.59V137.18H428.98V130.42H402.46V117.36Z" fill="#010101"/>
<path d="M474.82 119.79C480.78 117.91 484.71 112.22 484.38 105.97C484.56 102.16 483.2 98.44 480.61 95.65C477.63 92.69 473.04 91.11 467.35 91.11H446.41V137.18H454.37V121.53H464.92L475.37 137.18H484.64L473.17 120.42L474.82 119.79ZM454.37 114.77V98.01H466.45C472.62 98.01 476.29 101.13 476.29 106.38C476.29 111.63 472.51 114.77 466.72 114.77H454.37Z" fill="#010101"/>
<path d="M520.49 110.67C512.66 108.67 508.91 107.5 508.91 102.91C508.91 99.95 511.28 97.08 516.58 97.08C521.03 97.28 525.33 98.77 528.93 101.38L533.04 95.52C528.32 92.11 522.63 90.32 516.82 90.41C507.43 90.41 501.12 95.79 501.12 103.75C501.12 112.17 505.78 114.77 516.23 117.46C523.78 119.39 527.15 120.94 527.15 125.02C527.15 128.07 524.93 131.19 518.71 131.19C513.46 131.09 508.4 129.19 504.37 125.81L499.78 131.32C505.11 135.59 511.74 137.91 518.57 137.88C528.77 137.88 535.09 132.63 535.09 124.15C535.09 116.98 531.18 113.39 520.64 110.69" fill="#010101"/>
<path d="M560.32 91.11H552.38V137.18H560.32V91.11Z" fill="#010101"/>
<path d="M592.9 137.18H600.84V98.21H615.72V91.12H578.03V98.21H592.9V137.18Z" fill="#010101"/>
<path d="M663.65 91.12L650.96 112.05L638.52 91.12H629.31L646.93 118.91V137.18H654.88V118.68L672.5 91.12H663.65Z" fill="#010101"/>
<path d="M188.6 2.29999V67.09H232.3L237.63 54.23H202.87V2.29999H188.6Z" fill="#ED1B2E"/>
<path d="M285.02 39.98L276.42 18.96L267.83 39.98H285.02ZM270 2.37H283.14L310.92 67.16H296.03L290.18 52.58H262.68L256.77 67.09H242.23L270 2.37Z" fill="#ED1B2E"/>
<path d="M355.4 15.45H335.05V2.29999H389.99V15.45H369.65V67.09H355.4V15.45Z" fill="#ED1B2E"/>
<path d="M433.86 33.78C436.78 33.98 439.67 33.09 441.97 31.29C443.87 29.6 444.9 27.16 444.79 24.62V24.45C444.96 21.81 443.86 19.25 441.81 17.57C439.42 15.89 436.52 15.07 433.6 15.25H419.44V33.78H433.86ZM405.17 2.37H434.79C443.01 2.37 449.28 4.56999 453.7 8.95C457.45 12.91 459.43 18.23 459.17 23.68V23.87C459.4 28.47 458.07 33.01 455.39 36.75C452.82 40.05 449.36 42.55 445.42 43.95L461.25 67.09H444.58L430.64 46.37H419.43V67.09H405.18V2.37H405.17Z" fill="#ED1B2E"/>
<path d="M503.7 55.07C506.4 55.1 509.08 54.56 511.56 53.49C513.92 52.5 516.03 51.02 517.75 49.14C519.46 47.26 520.81 45.07 521.72 42.69C522.69 40.21 523.17 37.57 523.14 34.9V34.7C523.16 32.02 522.68 29.35 521.72 26.84C517.7 16.69 506.22 11.71 496.07 15.73C495.92 15.79 495.77 15.85 495.63 15.91C493.31 16.92 491.23 18.4 489.51 20.26C487.81 22.14 486.46 24.32 485.54 26.69C484.57 29.19 484.08 31.85 484.09 34.53V34.7C484.07 37.39 484.56 40.06 485.54 42.57C486.45 44.98 487.83 47.18 489.61 49.03C493.25 52.95 498.37 55.14 503.72 55.06M503.53 68.21C498.82 68.25 494.14 67.36 489.78 65.58C485.74 63.91 482.05 61.49 478.92 58.45C475.85 55.46 473.43 51.87 471.8 47.9C470.08 43.79 469.21 39.37 469.24 34.92V34.72C469.2 30.26 470.09 25.83 471.83 21.72C475.24 13.59 481.76 7.15998 489.93 3.85998C494.32 2.05998 499.02 1.15998 503.77 1.21998C508.48 1.16998 513.16 2.06998 517.52 3.85998C521.56 5.51998 525.24 7.92998 528.37 10.98C531.42 13.98 533.85 17.56 535.5 21.52C537.2 25.65 538.07 30.08 538.04 34.55V34.72C538.07 39.18 537.19 43.61 535.45 47.72C533.76 51.71 531.32 55.33 528.26 58.4C525.13 61.5 521.42 63.95 517.34 65.6C512.98 67.38 508.3 68.27 503.59 68.23" fill="#ED1B2E"/>
<path d="M585.44 54.59C588.02 54.72 590.59 54.12 592.85 52.87C594.67 51.74 595.73 49.71 595.62 47.57V47.38C595.7 45.35 594.76 43.42 593.13 42.22C590.72 40.75 587.9 40.08 585.09 40.31H568.6V54.56L585.44 54.59ZM581.66 28.5C584.26 28.63 586.84 28.07 589.16 26.88C590.98 25.82 592.05 23.83 591.93 21.72V21.53C592.04 19.58 591.12 17.71 589.52 16.6C587.46 15.33 585.06 14.73 582.64 14.88H568.58V28.63L581.66 28.5ZM554.62 2.37H584.65C592.11 2.37 597.74 4.27999 601.55 8.10999C604.45 11.01 606.03 14.96 605.93 19.06V19.25C605.95 20.91 605.72 22.56 605.22 24.15C604.8 25.51 604.18 26.81 603.4 28C602.66 29.11 601.77 30.12 600.77 31.01C599.79 31.9 598.7 32.67 597.54 33.31C600.91 34.48 603.95 36.46 606.38 39.09C608.67 41.96 609.82 45.57 609.61 49.23V49.42C609.68 52.12 609.09 54.78 607.89 57.19C606.76 59.43 605.08 61.34 603.01 62.76C600.67 64.29 598.08 65.38 595.35 65.97C592.1 66.75 588.76 67.11 585.42 67.07H554.63V2.37H554.62Z" fill="#ED1B2E"/>
<path d="M622.53 2.29999H671.3V14.99H636.59V28.14H661.96V40.82H636.59V54.44H671.76V67.09H622.53V2.29999Z" fill="#ED1B2E"/>
</g>
<defs>
<clipPath id="clip0_6031_130">
<rect width="674.46" height="139.93" fill="white"/>
</clipPath>
</defs>
</svg>
