<svg width="173" height="50" viewBox="0 0 173 50" fill="none" xmlns="http://www.w3.org/2000/svg">
<g clip-path="url(#clip0_68_2809)">
<path d="M81.122 -0.0708008H87.7911V22.1593H83.4862V3.49307L79.3225 22.1593H74.8059L70.6069 3.49307V22.1593H66.3373V-0.0708008H73.0769L77.1347 17.3957L81.122 -0.0708008Z" fill="#25215D"/>
<path d="M104.058 20.1482C102.682 21.8419 100.565 22.7241 97.7418 22.7241C94.9189 22.7241 92.8017 21.8772 91.4256 20.1482C90.0142 18.3839 89.2732 16.1962 89.3437 13.9732C89.3084 11.7502 90.0494 9.56245 91.4256 7.79816C92.8017 6.06916 94.9189 5.18701 97.7418 5.18701C100.565 5.18701 102.682 6.06916 104.058 7.79816C105.434 9.56245 106.175 11.7149 106.14 13.9732C106.21 16.2315 105.469 18.4192 104.058 20.1482ZM100.6 17.7488C101.27 16.8666 101.623 15.5963 101.623 13.9379C101.623 12.2795 101.27 11.0445 100.6 10.127C99.2238 8.53916 96.8243 8.32745 95.2012 9.7036C95.06 9.84474 94.9189 9.9506 94.7777 10.127C94.1073 11.0092 93.7545 12.2795 93.7545 13.9379C93.7545 15.5963 94.1073 16.8666 94.7777 17.7488C96.1186 19.3366 98.518 19.5483 100.141 18.1722C100.282 18.031 100.459 17.8899 100.565 17.7488" fill="#25215D"/>
<path d="M120.995 6.66906C122.089 7.5512 122.618 9.03321 122.618 11.0798V22.1595H118.208V12.1384C118.208 11.4679 118.102 10.7622 117.855 10.1624C117.431 9.3155 116.62 8.89207 115.455 8.89207C114.291 8.89207 113.021 9.52721 112.491 10.7269C112.174 11.5385 112.033 12.3854 112.068 13.2322V22.1242H107.798V5.75163H111.962V8.15106C112.385 7.44535 112.915 6.84549 113.515 6.3162C114.503 5.61048 115.667 5.25763 116.867 5.3282C118.56 5.3282 119.937 5.78691 121.03 6.66906" fill="#25215D"/>
<path d="M131.828 12.1379C132.428 12.1026 132.992 11.9615 133.557 11.7497C134.192 11.5027 134.51 11.0793 134.51 10.5147C134.58 9.95017 134.298 9.42089 133.804 9.10331C133.133 8.82103 132.428 8.67988 131.687 8.71517C130.663 8.71517 129.922 8.96217 129.499 9.45617C129.181 9.8796 128.97 10.4089 128.899 10.9735H124.771C124.806 9.70317 125.229 8.46817 125.97 7.44488C127.099 5.99816 129.075 5.29244 131.828 5.29244C133.486 5.25716 135.145 5.61002 136.627 6.35102C138.038 7.05674 138.744 8.3976 138.744 10.4089V17.9248C138.744 18.4541 138.744 19.0892 138.744 19.8302C138.744 20.2183 138.814 20.6065 138.991 20.9593C139.167 21.1711 139.379 21.3475 139.626 21.4533V22.0885H134.933C134.827 21.7709 134.721 21.4886 134.651 21.1358C134.615 20.8535 134.545 20.5006 134.545 20.1478C133.945 20.7829 133.239 21.3475 132.498 21.8062C131.546 22.3355 130.452 22.6178 129.358 22.6178C128.017 22.6531 126.676 22.1943 125.653 21.3475C124.665 20.5006 124.206 19.3009 124.206 17.7483C124.206 16.1958 124.982 14.255 126.57 13.3729C127.417 12.8789 128.687 12.526 130.381 12.3143L131.863 12.1379H131.828ZM134.439 14.1492C134.192 14.3256 133.91 14.4668 133.592 14.5726C133.204 14.7138 132.816 14.7843 132.428 14.8549L131.44 15.0313C130.769 15.1019 130.099 15.3136 129.464 15.6312C128.793 15.984 128.405 16.6898 128.44 17.4661C128.37 18.0659 128.617 18.6658 129.075 19.0539C129.499 19.3715 130.028 19.5479 130.593 19.5479C131.51 19.5479 132.428 19.2656 133.204 18.7363C133.98 18.2071 134.404 17.2191 134.439 15.7723V14.1845V14.1492Z" fill="#25215D"/>
<path d="M144.778 16.9018C144.778 17.5016 144.989 18.0662 145.378 18.5249C145.907 19.0895 146.895 19.3718 148.342 19.3718C149.047 19.3718 149.718 19.2659 150.353 18.9836C150.988 18.7013 151.27 17.9603 150.988 17.3252C150.882 17.0782 150.706 16.9018 150.494 16.7606C150.106 16.5136 148.589 16.0902 146.013 15.4551C144.143 14.9963 142.837 14.3965 142.061 13.7261C141.284 13.0556 140.932 12.0676 140.932 10.762C140.932 9.24475 141.567 7.83332 142.731 6.84532C143.931 5.75146 145.589 5.22217 147.777 5.22217C149.824 5.22217 151.517 5.6456 152.788 6.45717C154.093 7.26874 154.834 8.68018 155.011 10.6915H150.706C150.706 10.2328 150.494 9.77404 150.247 9.38589C149.753 8.82132 148.977 8.50375 147.812 8.50375C146.648 8.50375 146.224 8.64489 145.801 8.92718C145.448 9.13889 145.201 9.52704 145.201 9.95047C145.201 10.4092 145.448 10.7973 145.836 11.009C146.26 11.256 147.742 11.6442 150.318 12.2088C152.011 12.5969 153.317 13.232 154.164 14.0436C155.011 14.8552 155.469 15.9843 155.434 17.1488C155.469 18.7013 154.799 20.1481 153.599 21.1361C152.399 22.1594 150.494 22.6886 147.989 22.6886C145.413 22.6886 143.472 22.1594 142.272 21.0655C141.073 20.0069 140.367 18.4896 140.438 16.9018H144.813H144.778Z" fill="#25215D"/>
<path d="M168.984 5.82216C169.795 6.17502 170.501 6.73959 171.03 7.44531C171.454 8.00988 171.736 8.64503 171.842 9.35074C171.948 10.4093 172.018 11.4679 171.983 12.5265V22.1948H167.608V12.1736C167.608 11.4326 167.502 10.6916 167.149 10.0212C166.761 9.24488 166.02 8.85674 164.926 8.85674C163.938 8.78617 162.985 9.2096 162.35 9.98589C161.75 10.7269 161.468 11.8207 161.468 13.2322V22.1595H157.163V0H161.468V7.83345C161.997 6.98659 162.738 6.28088 163.62 5.85745C164.432 5.4693 165.314 5.29287 166.196 5.29287C167.149 5.29287 168.066 5.4693 168.949 5.82216" fill="#25215D"/>
<path d="M66.3373 49.5411V27.311H70.9244V35.7796H79.5695V27.311H84.1919V49.5411H79.5695V39.6258H70.9244V49.5411H66.3373Z" fill="#25215D"/>
<path d="M97.6006 33.4511C98.765 33.9804 99.7177 34.8272 100.423 35.8858C101.129 36.9091 101.553 38.0735 101.729 39.2733C101.87 40.3671 101.905 41.461 101.87 42.5195H89.9083C89.9788 44.178 90.5434 45.3071 91.6373 45.9776C92.343 46.401 93.1898 46.6127 94.0014 46.6127C95.3776 46.7186 96.6831 45.9776 97.283 44.7426H101.658C101.553 45.7306 101.023 46.7186 100.071 47.7066C98.5886 49.2944 96.542 50.106 93.8956 50.106C91.7784 50.106 89.7318 49.4356 88.1087 48.0947C86.4503 46.7538 85.6034 44.5661 85.6034 41.5315C85.6034 38.497 86.3444 36.4857 87.8617 34.9684C89.379 33.4511 91.3197 32.6748 93.7544 32.6748C95.0953 32.6748 96.4009 32.9218 97.6359 33.4511M91.2138 37.1561C90.5787 37.8618 90.1553 38.744 90.0847 39.6967H97.4947C97.4241 38.5675 97.036 37.6854 96.3656 37.1208C95.6599 36.521 94.7424 36.2034 93.825 36.2387C92.7311 36.2387 91.8843 36.5562 91.2491 37.1914" fill="#25215D"/>
<path d="M110.445 39.5554C111.044 39.5201 111.609 39.3789 112.174 39.1672C112.809 38.9202 113.091 38.4968 113.091 37.9322C113.162 37.3677 112.879 36.8031 112.385 36.5208C111.715 36.2385 111.009 36.0974 110.303 36.1327C109.28 36.1327 108.539 36.3797 108.116 36.8737C107.798 37.2971 107.586 37.8264 107.516 38.3909H103.352C103.387 37.1207 103.811 35.8857 104.552 34.8624C105.681 33.4156 107.657 32.7099 110.409 32.7099C112.068 32.6746 113.726 33.0275 115.208 33.7685C116.62 34.4742 117.325 35.8151 117.325 37.7911V45.307C117.325 45.8362 117.325 46.4714 117.325 47.2124C117.325 47.6005 117.396 47.9887 117.572 48.3415C117.749 48.5533 117.961 48.7297 118.208 48.8355V49.4707H113.514C113.409 49.1531 113.303 48.8708 113.232 48.5533C113.197 48.271 113.126 47.9181 113.126 47.5653C112.526 48.2004 111.821 48.765 111.08 49.1884C110.127 49.7177 109.033 50 107.939 50C106.598 50.0353 105.258 49.6118 104.234 48.7297C103.246 47.8828 102.788 46.6831 102.788 45.1305C102.788 43.578 103.564 41.6372 105.152 40.7551C105.999 40.2611 107.269 39.9082 108.963 39.6965L110.445 39.5201V39.5554ZM113.091 41.5314C112.844 41.7078 112.562 41.849 112.244 41.9548C111.856 42.096 111.468 42.2018 111.08 42.2371L110.092 42.4135C109.421 42.4841 108.751 42.6958 108.116 43.0134C107.445 43.3662 107.057 44.072 107.092 44.8482C107.022 45.4481 107.269 46.048 107.728 46.4361C108.151 46.7537 108.68 46.9301 109.245 46.9301C110.162 46.9301 111.08 46.6478 111.856 46.1185C112.632 45.5892 113.056 44.6012 113.091 43.1545V41.5667V41.5314Z" fill="#25215D"/>
<path d="M124.135 27.311H119.831V49.5411H124.135V27.311Z" fill="#25215D"/>
<path d="M125.229 36.3089V33.239H127.523V28.6519H131.757V33.239H134.439V36.3089H131.757V44.9892C131.757 45.6596 131.828 46.0831 132.004 46.2595C132.181 46.4359 132.71 46.5065 133.592 46.5065H134.016C134.157 46.5065 134.298 46.5065 134.439 46.5065V49.7175L132.392 49.7881C130.381 49.8586 128.97 49.5058 128.229 48.7295C127.735 48.2355 127.523 47.4592 127.523 46.4712V36.3442H125.229V36.3089Z" fill="#25215D"/>
<path d="M147.636 33.204C148.447 33.5569 149.153 34.1214 149.683 34.8271C150.106 35.3917 150.388 36.0269 150.494 36.7326C150.635 37.7912 150.671 38.8497 150.635 39.9083V49.5766H146.26V39.5554C146.26 38.8144 146.154 38.0734 145.801 37.403C145.413 36.6267 144.672 36.2739 143.578 36.2739C142.484 36.2739 141.602 36.662 141.002 37.403C140.402 38.1793 140.12 39.2379 140.12 40.6493V49.5413H135.85V27.3818H140.155V35.2153C140.685 34.3684 141.426 33.6627 142.308 33.204C143.119 32.8159 144.001 32.6394 144.884 32.6394C145.836 32.6394 146.754 32.8159 147.636 33.1687" fill="#25215D"/>
<path d="M44.319 -0.0708008H31.4749L24.8412 6.52765L18.2075 -0.0708008H5.39872L0.0352783 5.29264V44.2129L5.36344 49.5411H22.4771V44.848H27.2054V49.5411H44.319L49.6471 44.2129V5.29264L44.319 -0.0708008ZM44.566 42.0957L42.2371 44.4246H32.2865V39.7316H17.3959V44.4246H7.4453L5.11644 42.0957V7.44508L7.48059 5.08093H16.1256L24.8412 13.7965L33.5568 5.08093H42.2018L44.566 7.44508V42.131V42.0957Z" fill="#25215D"/>
</g>
<defs>
<clipPath id="clip0_68_2809">
<rect width="172.054" height="50" fill="white"/>
</clipPath>
</defs>
</svg>
